<svg width="100" height="100" viewBox="0 0 100 100" fill="none" xmlns="http://www.w3.org/2000/svg">
<path d="M50 34.5417C48.528 34.5645 47.0668 34.7969 45.6611 35.2318C46.3113 36.3681 46.6575 37.6511 46.6667 38.9583C46.6667 39.9733 46.4655 40.9784 46.0746 41.9162C45.6837 42.8539 45.1108 43.706 44.3886 44.4237C43.6664 45.1414 42.8089 45.7107 41.8653 46.0992C40.9217 46.4876 39.9103 46.6875 38.8889 46.6875C37.5735 46.6784 36.2824 46.3344 35.1389 45.6882C34.2367 48.7976 34.3418 52.1101 35.4394 55.1568C36.537 58.2034 38.5714 60.8297 41.2544 62.6635C43.9374 64.4973 47.133 65.4457 50.3886 65.3745C53.6441 65.3032 56.7946 64.2158 59.3937 62.2663C61.9929 60.3169 63.9089 57.6041 64.8704 54.5124C65.8319 51.4207 65.7901 48.1067 64.751 45.0399C63.7119 41.9731 61.7281 39.3089 59.0807 37.4247C56.4332 35.5405 53.2563 34.5319 50 34.5417ZM89.5167 47.9849C81.9848 33.3809 67.0736 23.5 50 23.5C32.9264 23.5 18.0111 33.3878 10.4833 47.9863C10.1655 48.6108 10 49.3009 10 50.0007C10 50.7005 10.1655 51.3905 10.4833 52.0151C18.0152 66.6191 32.9264 76.5 50 76.5C67.0736 76.5 81.989 66.6122 89.5167 52.0137C89.8345 51.3892 90 50.6991 90 49.9993C90 49.2995 89.8345 48.6095 89.5167 47.9849ZM50 69.875C36.2986 69.875 23.7374 62.2839 16.9541 50C23.7374 37.7161 36.2972 30.125 50 30.125C63.7028 30.125 76.2626 37.7161 83.0459 50C76.2639 62.2839 63.7028 69.875 50 69.875Z" fill="#460096"/>
</svg>