<svg width="88" height="88" viewBox="0 0 88 88" fill="none" xmlns="http://www.w3.org/2000/svg">
<g filter="url(#filter0_d_1531_1493)">
<rect x="3" y="1" width="82" height="82" rx="41" fill="#99E046"/>
<rect x="5" y="3" width="78" height="78" rx="39" stroke="#54A318" stroke-width="4"/>
<mask id="path-3-outside-1_1531_1493" maskUnits="userSpaceOnUse" x="13" y="25.5" width="64" height="34" fill="black">
<rect fill="white" x="13" y="25.5" width="64" height="34"/>
<path d="M26.852 29.986C27.5093 29.986 28.0533 30.1333 28.484 30.428C28.9147 30.7227 29.13 31.1987 29.13 31.856V52.698C29.13 53.3553 28.9147 53.8313 28.484 54.126C28.0533 54.4207 27.5433 54.568 26.954 54.568C26.3647 54.568 25.8547 54.4207 25.424 54.126C24.9933 53.8313 24.778 53.3553 24.778 52.698V35.086L20.392 37.602C19.8253 37.9193 19.2927 37.9873 18.794 37.806C18.2953 37.602 17.91 37.2507 17.638 36.752C17.3887 36.2987 17.3093 35.8113 17.4 35.29C17.4907 34.7687 17.7967 34.3607 18.318 34.066L24.064 30.87C24.6533 30.5527 25.1633 30.326 25.594 30.19C26.0247 30.054 26.444 29.986 26.852 29.986ZM43.924 29.816C47.0747 29.816 49.364 30.836 50.792 32.876C52.2427 34.916 52.968 37.806 52.968 41.546V43.008C52.968 46.748 52.2427 49.638 50.792 51.678C49.364 53.718 47.0747 54.738 43.924 54.738C40.7733 54.738 38.4727 53.718 37.022 51.678C35.594 49.638 34.88 46.748 34.88 43.008V41.546C34.88 37.806 35.594 34.916 37.022 32.876C38.4727 30.836 40.7733 29.816 43.924 29.816ZM43.924 33.93C43.04 33.93 42.292 34.0773 41.68 34.372C41.0907 34.6667 40.6147 35.1427 40.252 35.8C39.912 36.4347 39.6627 37.2507 39.504 38.248C39.3453 39.2453 39.266 40.4467 39.266 41.852V42.702C39.266 44.1073 39.3453 45.3087 39.504 46.306C39.6627 47.3033 39.912 48.1307 40.252 48.788C40.6147 49.4227 41.0907 49.8873 41.68 50.182C42.292 50.4767 43.04 50.624 43.924 50.624C44.808 50.624 45.5447 50.4767 46.134 50.182C46.746 49.8873 47.222 49.4227 47.562 48.788C47.9247 48.1307 48.1853 47.3033 48.344 46.306C48.5027 45.3087 48.582 44.1073 48.582 42.702V41.852C48.582 40.4467 48.5027 39.2453 48.344 38.248C48.1853 37.2507 47.9247 36.4347 47.562 35.8C47.222 35.1427 46.746 34.6667 46.134 34.372C45.5447 34.0773 44.808 33.93 43.924 33.93ZM63.308 29.816C66.4586 29.816 68.748 30.836 70.176 32.876C71.6266 34.916 72.352 37.806 72.352 41.546V43.008C72.352 46.748 71.6266 49.638 70.176 51.678C68.748 53.718 66.4586 54.738 63.308 54.738C60.1573 54.738 57.8566 53.718 56.406 51.678C54.978 49.638 54.264 46.748 54.264 43.008V41.546C54.264 37.806 54.978 34.916 56.406 32.876C57.8566 30.836 60.1573 29.816 63.308 29.816ZM63.308 33.93C62.424 33.93 61.676 34.0773 61.064 34.372C60.4746 34.6667 59.9986 35.1427 59.636 35.8C59.296 36.4347 59.0466 37.2507 58.888 38.248C58.7293 39.2453 58.65 40.4467 58.65 41.852V42.702C58.65 44.1073 58.7293 45.3087 58.888 46.306C59.0466 47.3033 59.296 48.1307 59.636 48.788C59.9986 49.4227 60.4746 49.8873 61.064 50.182C61.676 50.4767 62.424 50.624 63.308 50.624C64.192 50.624 64.9286 50.4767 65.518 50.182C66.13 49.8873 66.606 49.4227 66.946 48.788C67.3086 48.1307 67.5693 47.3033 67.728 46.306C67.8866 45.3087 67.966 44.1073 67.966 42.702V41.852C67.966 40.4467 67.8866 39.2453 67.728 38.248C67.5693 37.2507 67.3086 36.4347 66.946 35.8C66.606 35.1427 66.13 34.6667 65.518 34.372C64.9286 34.0773 64.192 33.93 63.308 33.93Z"/>
</mask>
<path d="M26.852 29.986C27.5093 29.986 28.0533 30.1333 28.484 30.428C28.9147 30.7227 29.13 31.1987 29.13 31.856V52.698C29.13 53.3553 28.9147 53.8313 28.484 54.126C28.0533 54.4207 27.5433 54.568 26.954 54.568C26.3647 54.568 25.8547 54.4207 25.424 54.126C24.9933 53.8313 24.778 53.3553 24.778 52.698V35.086L20.392 37.602C19.8253 37.9193 19.2927 37.9873 18.794 37.806C18.2953 37.602 17.91 37.2507 17.638 36.752C17.3887 36.2987 17.3093 35.8113 17.4 35.29C17.4907 34.7687 17.7967 34.3607 18.318 34.066L24.064 30.87C24.6533 30.5527 25.1633 30.326 25.594 30.19C26.0247 30.054 26.444 29.986 26.852 29.986ZM43.924 29.816C47.0747 29.816 49.364 30.836 50.792 32.876C52.2427 34.916 52.968 37.806 52.968 41.546V43.008C52.968 46.748 52.2427 49.638 50.792 51.678C49.364 53.718 47.0747 54.738 43.924 54.738C40.7733 54.738 38.4727 53.718 37.022 51.678C35.594 49.638 34.88 46.748 34.88 43.008V41.546C34.88 37.806 35.594 34.916 37.022 32.876C38.4727 30.836 40.7733 29.816 43.924 29.816ZM43.924 33.93C43.04 33.93 42.292 34.0773 41.68 34.372C41.0907 34.6667 40.6147 35.1427 40.252 35.8C39.912 36.4347 39.6627 37.2507 39.504 38.248C39.3453 39.2453 39.266 40.4467 39.266 41.852V42.702C39.266 44.1073 39.3453 45.3087 39.504 46.306C39.6627 47.3033 39.912 48.1307 40.252 48.788C40.6147 49.4227 41.0907 49.8873 41.68 50.182C42.292 50.4767 43.04 50.624 43.924 50.624C44.808 50.624 45.5447 50.4767 46.134 50.182C46.746 49.8873 47.222 49.4227 47.562 48.788C47.9247 48.1307 48.1853 47.3033 48.344 46.306C48.5027 45.3087 48.582 44.1073 48.582 42.702V41.852C48.582 40.4467 48.5027 39.2453 48.344 38.248C48.1853 37.2507 47.9247 36.4347 47.562 35.8C47.222 35.1427 46.746 34.6667 46.134 34.372C45.5447 34.0773 44.808 33.93 43.924 33.93ZM63.308 29.816C66.4586 29.816 68.748 30.836 70.176 32.876C71.6266 34.916 72.352 37.806 72.352 41.546V43.008C72.352 46.748 71.6266 49.638 70.176 51.678C68.748 53.718 66.4586 54.738 63.308 54.738C60.1573 54.738 57.8566 53.718 56.406 51.678C54.978 49.638 54.264 46.748 54.264 43.008V41.546C54.264 37.806 54.978 34.916 56.406 32.876C57.8566 30.836 60.1573 29.816 63.308 29.816ZM63.308 33.93C62.424 33.93 61.676 34.0773 61.064 34.372C60.4746 34.6667 59.9986 35.1427 59.636 35.8C59.296 36.4347 59.0466 37.2507 58.888 38.248C58.7293 39.2453 58.65 40.4467 58.65 41.852V42.702C58.65 44.1073 58.7293 45.3087 58.888 46.306C59.0466 47.3033 59.296 48.1307 59.636 48.788C59.9986 49.4227 60.4746 49.8873 61.064 50.182C61.676 50.4767 62.424 50.624 63.308 50.624C64.192 50.624 64.9286 50.4767 65.518 50.182C66.13 49.8873 66.606 49.4227 66.946 48.788C67.3086 48.1307 67.5693 47.3033 67.728 46.306C67.8866 45.3087 67.966 44.1073 67.966 42.702V41.852C67.966 40.4467 67.8866 39.2453 67.728 38.248C67.5693 37.2507 67.3086 36.4347 66.946 35.8C66.606 35.1427 66.13 34.6667 65.518 34.372C64.9286 34.0773 64.192 33.93 63.308 33.93Z" fill="white"/>
<path d="M28.484 30.428L26.2253 33.7292L26.2253 33.7292L28.484 30.428ZM28.484 54.126L30.7427 57.4272L30.7427 57.4272L28.484 54.126ZM25.424 54.126L27.6827 50.8248L27.6827 50.8248L25.424 54.126ZM24.778 35.086H28.778V28.18L22.7877 31.6163L24.778 35.086ZM20.392 37.602L22.3464 41.092L22.3644 41.0819L22.3823 41.0717L20.392 37.602ZM18.794 37.806L17.2795 41.5082L17.3527 41.5381L17.427 41.5652L18.794 37.806ZM17.638 36.752L21.1496 34.8366L21.1429 34.8243L17.638 36.752ZM17.4 35.29L21.3408 35.9754L21.3408 35.9754L17.4 35.29ZM18.318 34.066L16.3737 30.5703L16.3617 30.577L16.3498 30.5837L18.318 34.066ZM24.064 30.87L22.1676 27.3481L22.1435 27.3611L22.1197 27.3743L24.064 30.87ZM26.852 33.986C26.913 33.986 26.6142 33.9953 26.2253 33.7292L30.7427 27.1268C29.4925 26.2713 28.1057 25.986 26.852 25.986V33.986ZM26.2253 33.7292C25.8354 33.4625 25.5179 33.0832 25.3241 32.6547C25.1451 32.2591 25.13 31.9537 25.13 31.856H33.13C33.13 30.2641 32.5469 28.3612 30.7427 27.1268L26.2253 33.7292ZM25.13 31.856V52.698H33.13V31.856H25.13ZM25.13 52.698C25.13 52.6003 25.1451 52.2949 25.3241 51.8993C25.5179 51.4708 25.8354 51.0915 26.2253 50.8248L30.7427 57.4272C32.5469 56.1928 33.13 54.2899 33.13 52.698H25.13ZM26.2253 50.8248C26.3676 50.7274 26.5213 50.6571 26.6683 50.6146C26.8114 50.5733 26.9139 50.568 26.954 50.568V58.568C28.2414 58.568 29.5628 58.2345 30.7427 57.4272L26.2253 50.8248ZM26.954 50.568C26.9941 50.568 27.0966 50.5733 27.2397 50.6146C27.3867 50.6571 27.5404 50.7274 27.6827 50.8248L23.1653 57.4272C24.3452 58.2345 25.6666 58.568 26.954 58.568V50.568ZM27.6827 50.8248C28.0726 51.0915 28.3901 51.4708 28.5839 51.8993C28.7629 52.2949 28.778 52.6003 28.778 52.698H20.778C20.778 54.2899 21.3611 56.1928 23.1653 57.4272L27.6827 50.8248ZM28.778 52.698V35.086H20.778V52.698H28.778ZM22.7877 31.6163L18.4017 34.1323L22.3823 41.0717L26.7683 38.5557L22.7877 31.6163ZM18.4376 34.112C18.5104 34.0712 18.724 33.9662 19.061 33.9232C19.4189 33.8775 19.8039 33.917 20.161 34.0468L17.427 41.5652C19.2606 42.2319 21.0123 41.8391 22.3464 41.092L18.4376 34.112ZM20.3085 34.1038C20.4788 34.1735 20.6605 34.2828 20.826 34.4337C20.9894 34.5826 21.092 34.731 21.1496 34.8366L14.1264 38.6674C14.8131 39.9263 15.8809 40.9361 17.2795 41.5082L20.3085 34.1038ZM21.1429 34.8243C21.2275 34.9782 21.3024 35.1757 21.3395 35.4038C21.3765 35.6307 21.3664 35.8284 21.3408 35.9754L13.4592 34.6046C13.2166 35.9991 13.4352 37.4107 14.1331 38.6797L21.1429 34.8243ZM21.3408 35.9754C21.2822 36.3126 21.1377 36.6727 20.8975 36.993C20.6664 37.3011 20.4237 37.4705 20.2862 37.5483L16.3498 30.5837C14.9399 31.3806 13.7838 32.7379 13.4592 34.6046L21.3408 35.9754ZM20.2623 37.5617L26.0083 34.3657L22.1197 27.3743L16.3737 30.5703L20.2623 37.5617ZM25.9604 34.3919C26.4236 34.1425 26.6916 34.0381 26.7985 34.0043L24.3895 26.3757C23.6351 26.6139 22.8831 26.9628 22.1676 27.3481L25.9604 34.3919ZM26.7985 34.0043C26.8408 33.991 26.8648 33.9866 26.8718 33.9854C26.8784 33.9843 26.8711 33.986 26.852 33.986V25.986C25.9942 25.986 25.1685 26.1297 24.3895 26.3757L26.7985 34.0043ZM50.792 32.876L47.5151 35.1698L47.5236 35.182L47.5322 35.1941L50.792 32.876ZM50.792 51.678L47.5322 49.3599L47.5236 49.372L47.5151 49.3842L50.792 51.678ZM37.022 51.678L33.7451 53.9718L33.7536 53.984L33.7622 53.9961L37.022 51.678ZM37.022 32.876L33.7622 30.5579L33.7536 30.57L33.7451 30.5821L37.022 32.876ZM41.68 34.372L39.9447 30.768L39.9178 30.7809L39.8911 30.7943L41.68 34.372ZM40.252 35.8L36.7497 33.8677L36.7377 33.8893L36.7261 33.9111L40.252 35.8ZM39.504 38.248L35.5537 37.6195L39.504 38.248ZM39.504 46.306L35.5537 46.9345L39.504 46.306ZM40.252 48.788L36.6991 50.6257L36.7375 50.7L36.779 50.7726L40.252 48.788ZM41.68 50.182L39.8911 53.7597L39.9178 53.7731L39.9447 53.786L41.68 50.182ZM46.134 50.182L44.3987 46.578L44.3718 46.5909L44.3451 46.6043L46.134 50.182ZM47.562 48.788L44.0597 46.8557L44.0477 46.8773L44.0361 46.8991L47.562 48.788ZM48.344 46.306L52.2943 46.9345H52.2943L48.344 46.306ZM47.562 35.8L44.0091 37.6377L44.0475 37.712L44.089 37.7846L47.562 35.8ZM46.134 34.372L44.3451 37.9497L44.3718 37.9631L44.3987 37.976L46.134 34.372ZM43.924 33.816C46.1567 33.816 47.0331 34.4814 47.5151 35.1698L54.0689 30.5821C51.6948 27.1906 47.9926 25.816 43.924 25.816V33.816ZM47.5322 35.1941C48.3168 36.2975 48.968 38.2484 48.968 41.546H56.968C56.968 37.3636 56.1685 33.5345 54.0518 30.5579L47.5322 35.1941ZM48.968 41.546V43.008H56.968V41.546H48.968ZM48.968 43.008C48.968 46.3056 48.3168 48.2565 47.5322 49.3599L54.0518 53.9961C56.1685 51.0195 56.968 47.1904 56.968 43.008H48.968ZM47.5151 49.3842C47.0331 50.0726 46.1567 50.738 43.924 50.738V58.738C47.9926 58.738 51.6948 57.3634 54.0689 53.9718L47.5151 49.3842ZM43.924 50.738C41.6939 50.738 40.7887 50.0728 40.2818 49.3599L33.7622 53.9961C36.1566 57.3632 39.8528 58.738 43.924 58.738V50.738ZM40.2989 49.3841C39.5237 48.2766 38.88 46.3156 38.88 43.008H30.88C30.88 47.1804 31.6643 50.9994 33.7451 53.9718L40.2989 49.3841ZM38.88 43.008V41.546H30.88V43.008H38.88ZM38.88 41.546C38.88 38.2384 39.5237 36.2774 40.2989 35.1698L33.7451 30.5821C31.6643 33.5546 30.88 37.3736 30.88 41.546H38.88ZM40.2818 35.1941C40.7887 34.4812 41.6939 33.816 43.924 33.816V25.816C39.8528 25.816 36.1566 27.1907 33.7622 30.5579L40.2818 35.1941ZM43.924 29.93C42.6133 29.93 41.2357 30.1464 39.9447 30.768L43.4152 37.976C43.3483 38.0082 43.4667 37.93 43.924 37.93V29.93ZM39.8911 30.7943C38.4793 31.5002 37.4473 32.6033 36.7497 33.8677L43.7543 37.7323C43.7748 37.6951 43.7656 37.7223 43.7094 37.7784C43.6501 37.8378 43.5671 37.9006 43.4688 37.9497L39.8911 30.7943ZM36.7261 33.9111C36.1092 35.0627 35.7565 36.3448 35.5537 37.6195L43.4543 38.8765C43.5688 38.1565 43.7148 37.8067 43.7779 37.6889L36.7261 33.9111ZM35.5537 37.6195C35.3519 38.8875 35.266 40.3111 35.266 41.852H43.266C43.266 40.5822 43.3387 39.6032 43.4543 38.8765L35.5537 37.6195ZM35.266 41.852V42.702H43.266V41.852H35.266ZM35.266 42.702C35.266 44.2429 35.3519 45.6665 35.5537 46.9345L43.4543 45.6775C43.3387 44.9508 43.266 43.9718 43.266 42.702H35.266ZM35.5537 46.9345C35.7567 48.2108 36.106 49.4791 36.6991 50.6257L43.8049 46.9503C43.7179 46.7823 43.5686 46.3959 43.4543 45.6775L35.5537 46.9345ZM36.779 50.7726C37.4889 52.0149 38.5192 53.0738 39.8911 53.7597L43.4688 46.6043C43.5478 46.6438 43.6199 46.6963 43.6751 46.7502C43.7279 46.8017 43.7399 46.8297 43.725 46.8034L36.779 50.7726ZM39.9447 53.786C41.2357 54.4076 42.6133 54.624 43.924 54.624V46.624C43.4667 46.624 43.3483 46.5458 43.4152 46.578L39.9447 53.786ZM43.924 54.624C45.2266 54.624 46.6217 54.4103 47.9228 53.7597L44.3451 46.6043C44.4093 46.5722 44.4225 46.5777 44.355 46.5912C44.2855 46.6051 44.1474 46.624 43.924 46.624V54.624ZM47.8692 53.786C49.292 53.101 50.3733 52.0109 51.0879 50.6769L44.0361 46.8991C44.043 46.8861 44.0786 46.8256 44.1558 46.7502C44.2348 46.6731 44.3222 46.6148 44.3987 46.578L47.8692 53.786ZM51.0643 50.7203C51.713 49.5445 52.0864 48.2413 52.2943 46.9345L44.3937 45.6775C44.2842 46.3654 44.1363 46.7168 44.0597 46.8557L51.0643 50.7203ZM52.2943 46.9345C52.496 45.6665 52.582 44.2429 52.582 42.702H44.582C44.582 43.9718 44.5093 44.9508 44.3937 45.6775L52.2943 46.9345ZM52.582 42.702V41.852H44.582V42.702H52.582ZM52.582 41.852C52.582 40.3111 52.496 38.8875 52.2943 37.6195L44.3937 38.8765C44.5093 39.6032 44.582 40.5822 44.582 41.852H52.582ZM52.2943 37.6195C52.0866 36.3142 51.7097 34.9963 51.035 33.8154L44.089 37.7846C44.1396 37.873 44.284 38.1871 44.3937 38.8765L52.2943 37.6195ZM51.1149 33.9623C50.4142 32.6078 49.3335 31.473 47.8692 30.768L44.3987 37.976C44.303 37.9299 44.2046 37.8615 44.1216 37.7784C44.0828 37.7396 44.0545 37.7048 44.0353 37.6782C44.0164 37.652 44.0087 37.6369 44.0091 37.6377L51.1149 33.9623ZM47.9228 30.7943C46.6217 30.1437 45.2266 29.93 43.924 29.93V37.93C44.1474 37.93 44.2855 37.9489 44.355 37.9628C44.4225 37.9763 44.4093 37.9818 44.3451 37.9497L47.9228 30.7943ZM70.176 32.876L66.899 35.1698L66.9075 35.182L66.9161 35.1941L70.176 32.876ZM70.176 51.678L66.9161 49.3599L66.9075 49.372L66.899 49.3842L70.176 51.678ZM56.406 51.678L53.129 53.9718L53.1375 53.984L53.1461 53.9961L56.406 51.678ZM56.406 32.876L53.1461 30.5579L53.1375 30.57L53.129 30.5821L56.406 32.876ZM61.064 34.372L59.3287 30.768L59.3018 30.7809L59.2751 30.7943L61.064 34.372ZM59.636 35.8L56.1337 33.8677L56.1217 33.8893L56.11 33.9111L59.636 35.8ZM58.888 38.248L54.9376 37.6195L58.888 38.248ZM58.888 46.306L54.9376 46.9345L58.888 46.306ZM59.636 48.788L56.0831 50.6257L56.1215 50.7L56.163 50.7726L59.636 48.788ZM61.064 50.182L59.2751 53.7597L59.3018 53.7731L59.3287 53.786L61.064 50.182ZM65.518 50.182L63.7827 46.578L63.7558 46.5909L63.7291 46.6043L65.518 50.182ZM66.946 48.788L63.4437 46.8557L63.4317 46.8773L63.42 46.8991L66.946 48.788ZM67.728 46.306L71.6783 46.9345H71.6783L67.728 46.306ZM66.946 35.8L63.3931 37.6377L63.4315 37.712L63.473 37.7846L66.946 35.8ZM65.518 34.372L63.7291 37.9497L63.7558 37.9631L63.7827 37.976L65.518 34.372ZM63.308 33.816C65.5407 33.816 66.4171 34.4814 66.899 35.1698L73.4529 30.5821C71.0788 27.1906 67.3766 25.816 63.308 25.816V33.816ZM66.9161 35.1941C67.7008 36.2975 68.352 38.2484 68.352 41.546H76.352C76.352 37.3636 75.5525 33.5345 73.4358 30.5579L66.9161 35.1941ZM68.352 41.546V43.008H76.352V41.546H68.352ZM68.352 43.008C68.352 46.3056 67.7008 48.2565 66.9161 49.3599L73.4358 53.9961C75.5525 51.0195 76.352 47.1904 76.352 43.008H68.352ZM66.899 49.3842C66.4171 50.0726 65.5407 50.738 63.308 50.738V58.738C67.3766 58.738 71.0788 57.3634 73.4529 53.9718L66.899 49.3842ZM63.308 50.738C61.0779 50.738 60.1727 50.0728 59.6658 49.3599L53.1461 53.9961C55.5406 57.3632 59.2367 58.738 63.308 58.738V50.738ZM59.6829 49.3841C58.9076 48.2766 58.264 46.3156 58.264 43.008H50.264C50.264 47.1804 51.0483 50.9994 53.129 53.9718L59.6829 49.3841ZM58.264 43.008V41.546H50.264V43.008H58.264ZM58.264 41.546C58.264 38.2384 58.9076 36.2774 59.6829 35.1698L53.129 30.5821C51.0483 33.5546 50.264 37.3736 50.264 41.546H58.264ZM59.6658 35.1941C60.1727 34.4812 61.0779 33.816 63.308 33.816V25.816C59.2367 25.816 55.5406 27.1907 53.1461 30.5579L59.6658 35.1941ZM63.308 29.93C61.9973 29.93 60.6197 30.1464 59.3287 30.768L62.7992 37.976C62.7323 38.0082 62.8506 37.93 63.308 37.93V29.93ZM59.2751 30.7943C57.8633 31.5002 56.8312 32.6033 56.1337 33.8677L63.1383 37.7323C63.1588 37.6951 63.1496 37.7223 63.0934 37.7784C63.0341 37.8378 62.951 37.9006 62.8528 37.9497L59.2751 30.7943ZM56.11 33.9111C55.4932 35.0627 55.1404 36.3448 54.9376 37.6195L62.8383 38.8765C62.9528 38.1565 63.0988 37.8067 63.1619 37.6889L56.11 33.9111ZM54.9376 37.6195C54.7359 38.8875 54.65 40.3111 54.65 41.852H62.65C62.65 40.5822 62.7227 39.6032 62.8383 38.8765L54.9376 37.6195ZM54.65 41.852V42.702H62.65V41.852H54.65ZM54.65 42.702C54.65 44.2429 54.7359 45.6665 54.9376 46.9345L62.8383 45.6775C62.7227 44.9508 62.65 43.9718 62.65 42.702H54.65ZM54.9376 46.9345C55.1407 48.2108 55.49 49.4791 56.0831 50.6257L63.1888 46.9503C63.1019 46.7823 62.9526 46.3959 62.8383 45.6775L54.9376 46.9345ZM56.163 50.7726C56.8729 52.0149 57.9032 53.0738 59.2751 53.7597L62.8528 46.6043C62.9318 46.6438 63.0039 46.6963 63.0591 46.7502C63.1119 46.8017 63.1239 46.8297 63.1089 46.8034L56.163 50.7726ZM59.3287 53.786C60.6197 54.4076 61.9973 54.624 63.308 54.624V46.624C62.8506 46.624 62.7323 46.5458 62.7992 46.578L59.3287 53.786ZM63.308 54.624C64.6106 54.624 66.0057 54.4103 67.3068 53.7597L63.7291 46.6043C63.7933 46.5722 63.8065 46.5777 63.739 46.5912C63.6695 46.6051 63.5314 46.624 63.308 46.624V54.624ZM67.2532 53.786C68.676 53.101 69.7573 52.0109 70.4719 50.6769L63.42 46.8991C63.427 46.8861 63.4626 46.8256 63.5398 46.7502C63.6188 46.6731 63.7062 46.6148 63.7827 46.578L67.2532 53.786ZM70.4483 50.7203C71.097 49.5445 71.4704 48.2413 71.6783 46.9345L63.7776 45.6775C63.6682 46.3654 63.5203 46.7168 63.4437 46.8557L70.4483 50.7203ZM71.6783 46.9345C71.88 45.6665 71.966 44.2429 71.966 42.702H63.966C63.966 43.9718 63.8933 44.9508 63.7776 45.6775L71.6783 46.9345ZM71.966 42.702V41.852H63.966V42.702H71.966ZM71.966 41.852C71.966 40.3111 71.88 38.8875 71.6783 37.6195L63.7776 38.8765C63.8933 39.6032 63.966 40.5822 63.966 41.852H71.966ZM71.6783 37.6195C71.4706 36.3142 71.0937 34.9963 70.4189 33.8154L63.473 37.7846C63.5236 37.873 63.668 38.1871 63.7776 38.8765L71.6783 37.6195ZM70.4988 33.9623C69.7982 32.6078 68.7175 31.473 67.2532 30.768L63.7827 37.976C63.687 37.9299 63.5886 37.8615 63.5055 37.7784C63.4668 37.7396 63.4385 37.7048 63.4193 37.6782C63.4004 37.652 63.3927 37.6369 63.3931 37.6377L70.4988 33.9623ZM67.3068 30.7943C66.0057 30.1437 64.6106 29.93 63.308 29.93V37.93C63.5314 37.93 63.6695 37.9489 63.739 37.9628C63.8065 37.9763 63.7933 37.9818 63.7291 37.9497L67.3068 30.7943Z" fill="#73BD32" mask="url(#path-3-outside-1_1531_1493)"/>
</g>
<defs>
<filter id="filter0_d_1531_1493" x="0.266667" y="0.0888889" width="87.4667" height="87.4667" filterUnits="userSpaceOnUse" color-interpolation-filters="sRGB">
<feFlood flood-opacity="0" result="BackgroundImageFix"/>
<feColorMatrix in="SourceAlpha" type="matrix" values="0 0 0 0 0 0 0 0 0 0 0 0 0 0 0 0 0 0 127 0" result="hardAlpha"/>
<feOffset dy="1.82222"/>
<feGaussianBlur stdDeviation="1.36667"/>
<feComposite in2="hardAlpha" operator="out"/>
<feColorMatrix type="matrix" values="0 0 0 0 0 0 0 0 0 0 0 0 0 0 0 0 0 0 0.15 0"/>
<feBlend mode="normal" in2="BackgroundImageFix" result="effect1_dropShadow_1531_1493"/>
<feBlend mode="normal" in="SourceGraphic" in2="effect1_dropShadow_1531_1493" result="shape"/>
</filter>
</defs>
</svg>
