<svg width="90" height="91" viewBox="0 0 90 91" fill="none" xmlns="http://www.w3.org/2000/svg">
<g filter="url(#filter0_d_1531_1433)">
<rect x="4" y="2" width="82" height="82" rx="41" fill="#FF9AC5"/>
<rect x="6" y="4" width="78" height="78" rx="39" stroke="#D74A7F" stroke-width="4"/>
<mask id="path-3-outside-1_1531_1433" maskUnits="userSpaceOnUse" x="32" y="25.5" width="23" height="36" fill="black">
<rect fill="white" x="32" y="25.5" width="23" height="36"/>
<path d="M46.852 30.986C47.5093 30.986 48.0533 31.1333 48.484 31.428C48.9147 31.7227 49.13 32.1987 49.13 32.856V53.698C49.13 54.3553 48.9147 54.8313 48.484 55.126C48.0533 55.4207 47.5433 55.568 46.954 55.568C46.3647 55.568 45.8547 55.4207 45.424 55.126C44.9933 54.8313 44.778 54.3553 44.778 53.698V36.086L40.392 38.602C39.8253 38.9193 39.2927 38.9873 38.794 38.806C38.2953 38.602 37.91 38.2507 37.638 37.752C37.3887 37.2987 37.3093 36.8113 37.4 36.29C37.4907 35.7687 37.7967 35.3607 38.318 35.066L44.064 31.87C44.6533 31.5527 45.1633 31.326 45.594 31.19C46.0247 31.054 46.444 30.986 46.852 30.986Z"/>
</mask>
<path d="M46.852 30.986C47.5093 30.986 48.0533 31.1333 48.484 31.428C48.9147 31.7227 49.13 32.1987 49.13 32.856V53.698C49.13 54.3553 48.9147 54.8313 48.484 55.126C48.0533 55.4207 47.5433 55.568 46.954 55.568C46.3647 55.568 45.8547 55.4207 45.424 55.126C44.9933 54.8313 44.778 54.3553 44.778 53.698V36.086L40.392 38.602C39.8253 38.9193 39.2927 38.9873 38.794 38.806C38.2953 38.602 37.91 38.2507 37.638 37.752C37.3887 37.2987 37.3093 36.8113 37.4 36.29C37.4907 35.7687 37.7967 35.3607 38.318 35.066L44.064 31.87C44.6533 31.5527 45.1633 31.326 45.594 31.19C46.0247 31.054 46.444 30.986 46.852 30.986Z" fill="white"/>
<path d="M48.484 31.428L45.6606 35.5545L45.6606 35.5545L48.484 31.428ZM48.484 55.126L51.3074 59.2525L51.3074 59.2525L48.484 55.126ZM45.424 55.126L48.2474 50.9995L48.2474 50.9995L45.424 55.126ZM44.778 36.086H49.778V27.4535L42.2901 31.7489L44.778 36.086ZM40.392 38.602L42.835 42.9645L42.8575 42.9519L42.8799 42.9391L40.392 38.602ZM38.794 38.806L36.9008 43.4337L36.9924 43.4712L37.0853 43.505L38.794 38.806ZM37.638 37.752L42.0275 35.3577L42.0233 35.3501L42.0191 35.3424L37.638 37.752ZM37.4 36.29L42.3261 37.1467V37.1467L37.4 36.29ZM38.318 35.066L35.8876 30.6964L35.8726 30.7048L35.8577 30.7132L38.318 35.066ZM44.064 31.87L41.6935 27.4676L41.6634 27.4838L41.6336 27.5004L44.064 31.87ZM46.852 35.986C46.7639 35.986 46.2544 35.9608 45.6606 35.5545L51.3074 27.3015C49.8523 26.3058 48.2548 25.986 46.852 25.986V35.986ZM45.6606 35.5545C45.1194 35.1842 44.6822 34.662 44.413 34.0668C44.1624 33.5129 44.13 33.0603 44.13 32.856H54.13C54.13 31.0304 53.455 28.7708 51.3074 27.3015L45.6606 35.5545ZM44.13 32.856V53.698H54.13V32.856H44.13ZM44.13 53.698C44.13 53.4937 44.1624 53.0411 44.413 52.4872C44.6822 51.892 45.1194 51.3698 45.6606 50.9995L51.3074 59.2525C53.455 57.7832 54.13 55.5236 54.13 53.698H44.13ZM45.6606 50.9995C45.8924 50.8409 46.1432 50.7255 46.3908 50.6539C46.6334 50.5838 46.8302 50.568 46.954 50.568V60.568C48.4159 60.568 49.9402 60.188 51.3074 59.2525L45.6606 50.9995ZM46.954 50.568C47.0778 50.568 47.2746 50.5838 47.5172 50.6539C47.7648 50.7255 48.0156 50.8409 48.2474 50.9995L42.6006 59.2525C43.9678 60.188 45.4921 60.568 46.954 60.568V50.568ZM48.2474 50.9995C48.7886 51.3698 49.2258 51.892 49.495 52.4872C49.7456 53.0411 49.778 53.4937 49.778 53.698H39.778C39.778 55.5236 40.453 57.7832 42.6006 59.2525L48.2474 50.9995ZM49.778 53.698V36.086H39.778V53.698H49.778ZM42.2901 31.7489L37.9041 34.2649L42.8799 42.9391L47.2659 40.4231L42.2901 31.7489ZM37.949 34.2395C38.1109 34.1488 38.4466 33.9935 38.9343 33.9313C39.4484 33.8656 39.994 33.9221 40.5027 34.107L37.0853 43.505C39.2526 44.2931 41.309 43.8191 42.835 42.9645L37.949 34.2395ZM40.6872 34.1783C40.9623 34.2908 41.2447 34.4622 41.4998 34.6947C41.7522 34.9249 41.9215 35.1634 42.0275 35.3577L33.2485 40.1463C34.0388 41.5952 35.2773 42.7696 36.9008 43.4337L40.6872 34.1783ZM42.0191 35.3424C42.1561 35.5915 42.2702 35.8971 42.3265 36.2431C42.3826 36.5877 42.3693 36.8979 42.3261 37.1467L32.4739 35.4333C32.1935 37.046 32.4468 38.6887 33.2569 40.1616L42.0191 35.3424ZM42.3261 37.1467C42.2414 37.6334 42.036 38.1416 41.6975 38.593C41.3704 39.0292 41.0153 39.2848 40.7783 39.4188L35.8577 30.7132C34.2257 31.6356 32.8571 33.2302 32.4739 35.4333L42.3261 37.1467ZM40.7484 39.4356L46.4944 36.2396L41.6336 27.5004L35.8876 30.6964L40.7484 39.4356ZM46.4345 36.2724C46.6391 36.1622 46.7995 36.0843 46.9192 36.0311C46.9782 36.0049 47.0231 35.9865 47.0548 35.9743C47.0867 35.962 47.1012 35.9574 47.0997 35.9579L44.0883 26.4221C43.253 26.6859 42.4406 27.0654 41.6935 27.4676L46.4345 36.2724ZM47.0997 35.9579C47.0948 35.9594 47.0062 35.986 46.852 35.986V25.986C45.8818 25.986 44.9545 26.1486 44.0883 26.4221L47.0997 35.9579Z" fill="#E9689F" mask="url(#path-3-outside-1_1531_1433)"/>
</g>
<defs>
<filter id="filter0_d_1531_1433" x="0.0322583" y="0.677419" width="89.9355" height="89.9355" filterUnits="userSpaceOnUse" color-interpolation-filters="sRGB">
<feFlood flood-opacity="0" result="BackgroundImageFix"/>
<feColorMatrix in="SourceAlpha" type="matrix" values="0 0 0 0 0 0 0 0 0 0 0 0 0 0 0 0 0 0 127 0" result="hardAlpha"/>
<feOffset dy="2.64516"/>
<feGaussianBlur stdDeviation="1.98387"/>
<feComposite in2="hardAlpha" operator="out"/>
<feColorMatrix type="matrix" values="0 0 0 0 0 0 0 0 0 0 0 0 0 0 0 0 0 0 0.15 0"/>
<feBlend mode="normal" in2="BackgroundImageFix" result="effect1_dropShadow_1531_1433"/>
<feBlend mode="normal" in="SourceGraphic" in2="effect1_dropShadow_1531_1433" result="shape"/>
</filter>
</defs>
</svg>
