<svg width="88" height="88" viewBox="0 0 88 88" fill="none" xmlns="http://www.w3.org/2000/svg">
<g filter="url(#filter0_d_1531_1524)">
<rect x="3" y="1" width="82" height="82" rx="41" fill="#FFA32E"/>
<rect x="5" y="3" width="78" height="78" rx="39" stroke="#E46E00" stroke-width="4"/>
<mask id="path-3-outside-1_1531_1524" maskUnits="userSpaceOnUse" x="7" y="27" width="75" height="31" fill="black">
<rect fill="white" x="7" y="27" width="75" height="31"/>
<path d="M20.34 31.37C20.92 31.37 21.4 31.5 21.78 31.76C22.16 32.02 22.35 32.44 22.35 33.02V51.41C22.35 51.99 22.16 52.41 21.78 52.67C21.4 52.93 20.95 53.06 20.43 53.06C19.91 53.06 19.46 52.93 19.08 52.67C18.7 52.41 18.51 51.99 18.51 51.41V35.87L14.64 38.09C14.14 38.37 13.67 38.43 13.23 38.27C12.79 38.09 12.45 37.78 12.21 37.34C11.99 36.94 11.92 36.51 12 36.05C12.08 35.59 12.35 35.23 12.81 34.97L17.88 32.15C18.4 31.87 18.85 31.67 19.23 31.55C19.61 31.43 19.98 31.37 20.34 31.37ZM35.4035 31.22C38.1835 31.22 40.2035 32.12 41.4635 33.92C42.7435 35.72 43.3835 38.27 43.3835 41.57V42.86C43.3835 46.16 42.7435 48.71 41.4635 50.51C40.2035 52.31 38.1835 53.21 35.4035 53.21C32.6235 53.21 30.5935 52.31 29.3135 50.51C28.0535 48.71 27.4235 46.16 27.4235 42.86V41.57C27.4235 38.27 28.0535 35.72 29.3135 33.92C30.5935 32.12 32.6235 31.22 35.4035 31.22ZM35.4035 34.85C34.6235 34.85 33.9635 34.98 33.4235 35.24C32.9035 35.5 32.4835 35.92 32.1635 36.5C31.8635 37.06 31.6435 37.78 31.5035 38.66C31.3635 39.54 31.2935 40.6 31.2935 41.84V42.59C31.2935 43.83 31.3635 44.89 31.5035 45.77C31.6435 46.65 31.8635 47.38 32.1635 47.96C32.4835 48.52 32.9035 48.93 33.4235 49.19C33.9635 49.45 34.6235 49.58 35.4035 49.58C36.1835 49.58 36.8335 49.45 37.3535 49.19C37.8935 48.93 38.3135 48.52 38.6135 47.96C38.9335 47.38 39.1635 46.65 39.3035 45.77C39.4435 44.89 39.5135 43.83 39.5135 42.59V41.84C39.5135 40.6 39.4435 39.54 39.3035 38.66C39.1635 37.78 38.9335 37.06 38.6135 36.5C38.3135 35.92 37.8935 35.5 37.3535 35.24C36.8335 34.98 36.1835 34.85 35.4035 34.85ZM52.507 31.22C55.287 31.22 57.307 32.12 58.567 33.92C59.847 35.72 60.487 38.27 60.487 41.57V42.86C60.487 46.16 59.847 48.71 58.567 50.51C57.307 52.31 55.287 53.21 52.507 53.21C49.727 53.21 47.697 52.31 46.417 50.51C45.157 48.71 44.527 46.16 44.527 42.86V41.57C44.527 38.27 45.157 35.72 46.417 33.92C47.697 32.12 49.727 31.22 52.507 31.22ZM52.507 34.85C51.727 34.85 51.067 34.98 50.527 35.24C50.007 35.5 49.587 35.92 49.267 36.5C48.967 37.06 48.747 37.78 48.607 38.66C48.467 39.54 48.397 40.6 48.397 41.84V42.59C48.397 43.83 48.467 44.89 48.607 45.77C48.747 46.65 48.967 47.38 49.267 47.96C49.587 48.52 50.007 48.93 50.527 49.19C51.067 49.45 51.727 49.58 52.507 49.58C53.287 49.58 53.937 49.45 54.457 49.19C54.997 48.93 55.417 48.52 55.717 47.96C56.037 47.38 56.267 46.65 56.407 45.77C56.547 44.89 56.617 43.83 56.617 42.59V41.84C56.617 40.6 56.547 39.54 56.407 38.66C56.267 37.78 56.037 37.06 55.717 36.5C55.417 35.92 54.997 35.5 54.457 35.24C53.937 34.98 53.287 34.85 52.507 34.85ZM69.6105 31.22C72.3905 31.22 74.4105 32.12 75.6705 33.92C76.9505 35.72 77.5905 38.27 77.5905 41.57V42.86C77.5905 46.16 76.9505 48.71 75.6705 50.51C74.4105 52.31 72.3905 53.21 69.6105 53.21C66.8305 53.21 64.8005 52.31 63.5205 50.51C62.2605 48.71 61.6305 46.16 61.6305 42.86V41.57C61.6305 38.27 62.2605 35.72 63.5205 33.92C64.8005 32.12 66.8305 31.22 69.6105 31.22ZM69.6105 34.85C68.8305 34.85 68.1705 34.98 67.6305 35.24C67.1105 35.5 66.6905 35.92 66.3705 36.5C66.0705 37.06 65.8505 37.78 65.7105 38.66C65.5705 39.54 65.5005 40.6 65.5005 41.84V42.59C65.5005 43.83 65.5705 44.89 65.7105 45.77C65.8505 46.65 66.0705 47.38 66.3705 47.96C66.6905 48.52 67.1105 48.93 67.6305 49.19C68.1705 49.45 68.8305 49.58 69.6105 49.58C70.3905 49.58 71.0405 49.45 71.5605 49.19C72.1005 48.93 72.5205 48.52 72.8205 47.96C73.1405 47.38 73.3705 46.65 73.5105 45.77C73.6505 44.89 73.7205 43.83 73.7205 42.59V41.84C73.7205 40.6 73.6505 39.54 73.5105 38.66C73.3705 37.78 73.1405 37.06 72.8205 36.5C72.5205 35.92 72.1005 35.5 71.5605 35.24C71.0405 34.98 70.3905 34.85 69.6105 34.85Z"/>
</mask>
<path d="M20.34 31.37C20.92 31.37 21.4 31.5 21.78 31.76C22.16 32.02 22.35 32.44 22.35 33.02V51.41C22.35 51.99 22.16 52.41 21.78 52.67C21.4 52.93 20.95 53.06 20.43 53.06C19.91 53.06 19.46 52.93 19.08 52.67C18.7 52.41 18.51 51.99 18.51 51.41V35.87L14.64 38.09C14.14 38.37 13.67 38.43 13.23 38.27C12.79 38.09 12.45 37.78 12.21 37.34C11.99 36.94 11.92 36.51 12 36.05C12.08 35.59 12.35 35.23 12.81 34.97L17.88 32.15C18.4 31.87 18.85 31.67 19.23 31.55C19.61 31.43 19.98 31.37 20.34 31.37ZM35.4035 31.22C38.1835 31.22 40.2035 32.12 41.4635 33.92C42.7435 35.72 43.3835 38.27 43.3835 41.57V42.86C43.3835 46.16 42.7435 48.71 41.4635 50.51C40.2035 52.31 38.1835 53.21 35.4035 53.21C32.6235 53.21 30.5935 52.31 29.3135 50.51C28.0535 48.71 27.4235 46.16 27.4235 42.86V41.57C27.4235 38.27 28.0535 35.72 29.3135 33.92C30.5935 32.12 32.6235 31.22 35.4035 31.22ZM35.4035 34.85C34.6235 34.85 33.9635 34.98 33.4235 35.24C32.9035 35.5 32.4835 35.92 32.1635 36.5C31.8635 37.06 31.6435 37.78 31.5035 38.66C31.3635 39.54 31.2935 40.6 31.2935 41.84V42.59C31.2935 43.83 31.3635 44.89 31.5035 45.77C31.6435 46.65 31.8635 47.38 32.1635 47.96C32.4835 48.52 32.9035 48.93 33.4235 49.19C33.9635 49.45 34.6235 49.58 35.4035 49.58C36.1835 49.58 36.8335 49.45 37.3535 49.19C37.8935 48.93 38.3135 48.52 38.6135 47.96C38.9335 47.38 39.1635 46.65 39.3035 45.77C39.4435 44.89 39.5135 43.83 39.5135 42.59V41.84C39.5135 40.6 39.4435 39.54 39.3035 38.66C39.1635 37.78 38.9335 37.06 38.6135 36.5C38.3135 35.92 37.8935 35.5 37.3535 35.24C36.8335 34.98 36.1835 34.85 35.4035 34.85ZM52.507 31.22C55.287 31.22 57.307 32.12 58.567 33.92C59.847 35.72 60.487 38.27 60.487 41.57V42.86C60.487 46.16 59.847 48.71 58.567 50.51C57.307 52.31 55.287 53.21 52.507 53.21C49.727 53.21 47.697 52.31 46.417 50.51C45.157 48.71 44.527 46.16 44.527 42.86V41.57C44.527 38.27 45.157 35.72 46.417 33.92C47.697 32.12 49.727 31.22 52.507 31.22ZM52.507 34.85C51.727 34.85 51.067 34.98 50.527 35.24C50.007 35.5 49.587 35.92 49.267 36.5C48.967 37.06 48.747 37.78 48.607 38.66C48.467 39.54 48.397 40.6 48.397 41.84V42.59C48.397 43.83 48.467 44.89 48.607 45.77C48.747 46.65 48.967 47.38 49.267 47.96C49.587 48.52 50.007 48.93 50.527 49.19C51.067 49.45 51.727 49.58 52.507 49.58C53.287 49.58 53.937 49.45 54.457 49.19C54.997 48.93 55.417 48.52 55.717 47.96C56.037 47.38 56.267 46.65 56.407 45.77C56.547 44.89 56.617 43.83 56.617 42.59V41.84C56.617 40.6 56.547 39.54 56.407 38.66C56.267 37.78 56.037 37.06 55.717 36.5C55.417 35.92 54.997 35.5 54.457 35.24C53.937 34.98 53.287 34.85 52.507 34.85ZM69.6105 31.22C72.3905 31.22 74.4105 32.12 75.6705 33.92C76.9505 35.72 77.5905 38.27 77.5905 41.57V42.86C77.5905 46.16 76.9505 48.71 75.6705 50.51C74.4105 52.31 72.3905 53.21 69.6105 53.21C66.8305 53.21 64.8005 52.31 63.5205 50.51C62.2605 48.71 61.6305 46.16 61.6305 42.86V41.57C61.6305 38.27 62.2605 35.72 63.5205 33.92C64.8005 32.12 66.8305 31.22 69.6105 31.22ZM69.6105 34.85C68.8305 34.85 68.1705 34.98 67.6305 35.24C67.1105 35.5 66.6905 35.92 66.3705 36.5C66.0705 37.06 65.8505 37.78 65.7105 38.66C65.5705 39.54 65.5005 40.6 65.5005 41.84V42.59C65.5005 43.83 65.5705 44.89 65.7105 45.77C65.8505 46.65 66.0705 47.38 66.3705 47.96C66.6905 48.52 67.1105 48.93 67.6305 49.19C68.1705 49.45 68.8305 49.58 69.6105 49.58C70.3905 49.58 71.0405 49.45 71.5605 49.19C72.1005 48.93 72.5205 48.52 72.8205 47.96C73.1405 47.38 73.3705 46.65 73.5105 45.77C73.6505 44.89 73.7205 43.83 73.7205 42.59V41.84C73.7205 40.6 73.6505 39.54 73.5105 38.66C73.3705 37.78 73.1405 37.06 72.8205 36.5C72.5205 35.92 72.1005 35.5 71.5605 35.24C71.0405 34.98 70.3905 34.85 69.6105 34.85Z" fill="white"/>
<path d="M21.78 31.76L19.5213 35.0612L19.5213 35.0612L21.78 31.76ZM21.78 52.67L24.0387 55.9712H24.0387L21.78 52.67ZM19.08 52.67L21.3387 49.3688L21.3387 49.3688L19.08 52.67ZM18.51 35.87H22.51V28.964L16.5197 32.4003L18.51 35.87ZM14.64 38.09L16.5944 41.58L16.6124 41.5699L16.6303 41.5597L14.64 38.09ZM13.23 38.27L11.7155 41.9722L11.7887 42.0021L11.863 42.0292L13.23 38.27ZM12.21 37.34L15.7216 35.4246L15.7149 35.4123L12.21 37.34ZM12 36.05L15.9408 36.7354V36.7354L12 36.05ZM12.81 34.97L10.8657 31.4743L10.8537 31.481L10.8418 31.4877L12.81 34.97ZM17.88 32.15L15.9836 28.6281L15.9595 28.6411L15.9357 28.6543L17.88 32.15ZM20.34 35.37C20.3236 35.37 19.9609 35.362 19.5213 35.0612L24.0387 28.4588C22.8391 27.638 21.5164 27.37 20.34 27.37V35.37ZM19.5213 35.0612C19.106 34.7771 18.7696 34.3752 18.5631 33.9187C18.3715 33.4951 18.35 33.1564 18.35 33.02H26.35C26.35 31.5054 25.7922 29.6585 24.0387 28.4588L19.5213 35.0612ZM18.35 33.02V51.41H26.35V33.02H18.35ZM18.35 51.41C18.35 51.2736 18.3715 50.9349 18.5631 50.5113C18.7696 50.0548 19.106 49.6529 19.5213 49.3688L24.0387 55.9712C25.7922 54.7715 26.35 52.9246 26.35 51.41H18.35ZM19.5213 49.3688C19.689 49.254 19.8703 49.1708 20.0473 49.1196C20.2204 49.0696 20.3552 49.06 20.43 49.06V57.06C21.648 57.06 22.9095 56.7439 24.0387 55.9712L19.5213 49.3688ZM20.43 49.06C20.5048 49.06 20.6396 49.0696 20.8127 49.1196C20.9897 49.1708 21.171 49.254 21.3387 49.3688L16.8213 55.9712C17.9505 56.7439 19.212 57.06 20.43 57.06V49.06ZM21.3387 49.3688C21.754 49.6529 22.0904 50.0548 22.2969 50.5113C22.4886 50.9349 22.51 51.2736 22.51 51.41H14.51C14.51 52.9246 15.0678 54.7715 16.8213 55.9712L21.3387 49.3688ZM22.51 51.41V35.87H14.51V51.41H22.51ZM16.5197 32.4003L12.6497 34.6203L16.6303 41.5597L20.5003 39.3397L16.5197 32.4003ZM12.6856 34.6C12.7918 34.5405 13.0377 34.4242 13.406 34.3772C13.7953 34.3275 14.2106 34.3703 14.597 34.5108L11.863 42.0292C13.638 42.6746 15.327 42.2898 16.5944 41.58L12.6856 34.6ZM14.7445 34.5678C14.9441 34.6495 15.1518 34.7751 15.34 34.9467C15.5261 35.1163 15.648 35.2896 15.7216 35.4246L8.69842 39.2554C9.35307 40.4556 10.3756 41.4241 11.7155 41.9722L14.7445 34.5678ZM15.7149 35.4123C15.8142 35.5929 15.8987 35.8181 15.9405 36.0748C15.9821 36.3304 15.9717 36.5578 15.9408 36.7354L8.05915 35.3646C7.8273 36.6978 8.03652 38.052 8.70514 39.2677L15.7149 35.4123ZM15.9408 36.7354C15.8769 37.1032 15.7207 37.4907 15.4625 37.835C15.2134 38.1671 14.9464 38.3572 14.7782 38.4523L10.8418 31.4877C9.49322 32.25 8.37314 33.5592 8.05915 35.3646L15.9408 36.7354ZM14.7543 38.4657L19.8243 35.6457L15.9357 28.6543L10.8657 31.4743L14.7543 38.4657ZM19.7764 35.6719C20.1702 35.4598 20.3783 35.3821 20.4345 35.3643L18.0255 27.7357C17.3217 27.9579 16.6298 28.2802 15.9836 28.6281L19.7764 35.6719ZM20.4345 35.3643C20.4515 35.359 20.4504 35.3606 20.4328 35.3634C20.4148 35.3663 20.3831 35.37 20.34 35.37V27.37C19.5302 27.37 18.7539 27.5057 18.0255 27.7357L20.4345 35.3643ZM41.4635 33.92L38.1866 36.2138L38.1951 36.226L38.2037 36.2381L41.4635 33.92ZM41.4635 50.51L38.2037 48.1919L38.1951 48.204L38.1866 48.2162L41.4635 50.51ZM29.3135 50.51L26.0366 52.8039L26.0451 52.816L26.0537 52.8281L29.3135 50.51ZM29.3135 33.92L26.0537 31.6019L26.0451 31.614L26.0366 31.6261L29.3135 33.92ZM33.4235 35.24L31.6883 31.636L31.6614 31.6489L31.6347 31.6623L33.4235 35.24ZM32.1635 36.5L28.6612 34.5677L28.6493 34.5893L28.6376 34.6111L32.1635 36.5ZM31.5035 38.66L27.5532 38.0315L31.5035 38.66ZM31.5035 45.77L27.5532 46.3985L31.5035 45.77ZM32.1635 47.96L28.6106 49.7977L28.6491 49.872L28.6905 49.9446L32.1635 47.96ZM33.4235 49.19L31.6347 52.7677L31.6614 52.7811L31.6883 52.794L33.4235 49.19ZM37.3535 49.19L35.6183 45.586L35.5914 45.5989L35.5647 45.6123L37.3535 49.19ZM38.6135 47.96L35.1112 46.0277L35.0993 46.0493L35.0876 46.0711L38.6135 47.96ZM39.3035 45.77L43.2538 46.3985L39.3035 45.77ZM38.6135 36.5L35.0606 38.3377L35.0991 38.412L35.1405 38.4846L38.6135 36.5ZM37.3535 35.24L35.5647 38.8177L35.5914 38.8311L35.6183 38.844L37.3535 35.24ZM35.4035 35.22C37.2656 35.22 37.8727 35.7654 38.1866 36.2138L44.7404 31.6261C42.5344 28.4746 39.1014 27.22 35.4035 27.22V35.22ZM38.2037 36.2381C38.8177 37.1015 39.3835 38.7124 39.3835 41.57H47.3835C47.3835 37.8276 46.6694 34.3385 44.7233 31.6019L38.2037 36.2381ZM39.3835 41.57V42.86H47.3835V41.57H39.3835ZM39.3835 42.86C39.3835 45.7176 38.8177 47.3285 38.2037 48.1919L44.7233 52.8281C46.6694 50.0915 47.3835 46.6024 47.3835 42.86H39.3835ZM38.1866 48.2162C37.8727 48.6646 37.2656 49.21 35.4035 49.21V57.21C39.1014 57.21 42.5344 55.9554 44.7404 52.8038L38.1866 48.2162ZM35.4035 49.21C33.5441 49.21 32.9096 48.6648 32.5733 48.1919L26.0537 52.8281C28.2774 55.9552 31.703 57.21 35.4035 57.21V49.21ZM32.5904 48.2162C31.9832 47.3486 31.4235 45.7276 31.4235 42.86H23.4235C23.4235 46.5924 24.1238 50.0714 26.0366 52.8039L32.5904 48.2162ZM31.4235 42.86V41.57H23.4235V42.86H31.4235ZM31.4235 41.57C31.4235 38.7024 31.9832 37.0814 32.5904 36.2138L26.0366 31.6261C24.1238 34.3586 23.4235 37.8376 23.4235 41.57H31.4235ZM32.5733 36.2381C32.9096 35.7652 33.5441 35.22 35.4035 35.22V27.22C31.703 27.22 28.2774 28.4748 26.0537 31.6019L32.5733 36.2381ZM35.4035 30.85C34.1968 30.85 32.9072 31.0491 31.6883 31.636L35.1588 38.844C35.0883 38.878 35.0596 38.8794 35.0965 38.8721C35.1354 38.8644 35.233 38.85 35.4035 38.85V30.85ZM31.6347 31.6623C30.2922 32.3335 29.3161 33.3807 28.6612 34.5677L35.6658 38.4323C35.665 38.4338 35.6311 38.4943 35.5469 38.5784C35.4596 38.6658 35.3453 38.7513 35.2124 38.8177L31.6347 31.6623ZM28.6376 34.6111C28.0607 35.688 27.7373 36.8741 27.5532 38.0315L35.4538 39.2885C35.5497 38.6859 35.6663 38.432 35.6894 38.3889L28.6376 34.6111ZM27.5532 38.0315C27.3701 39.1822 27.2935 40.4644 27.2935 41.84H35.2935C35.2935 40.7356 35.3569 39.8978 35.4538 39.2885L27.5532 38.0315ZM27.2935 41.84V42.59H35.2935V41.84H27.2935ZM27.2935 42.59C27.2935 43.9656 27.3701 45.2478 27.5532 46.3985L35.4538 45.1415C35.3569 44.5322 35.2935 43.6944 35.2935 42.59H27.2935ZM27.5532 46.3985C27.7376 47.5574 28.0576 48.7284 28.6106 49.7977L35.7164 46.1223C35.6695 46.0316 35.5495 45.7426 35.4538 45.1415L27.5532 46.3985ZM28.6905 49.9446C29.3578 51.1123 30.3321 52.1164 31.6347 52.7677L35.2124 45.6123C35.326 45.6691 35.4295 45.744 35.5127 45.8252C35.5934 45.9041 35.6301 45.9643 35.6365 45.9754L28.6905 49.9446ZM31.6883 52.794C32.9072 53.3809 34.1968 53.58 35.4035 53.58V45.58C35.233 45.58 35.1354 45.5656 35.0965 45.5579C35.0596 45.5506 35.0883 45.552 35.1588 45.586L31.6883 52.794ZM35.4035 53.58C36.6021 53.58 37.9105 53.3836 39.1424 52.7677L35.5647 45.6123C35.6635 45.5629 35.7157 45.5553 35.6916 45.5602C35.6654 45.5654 35.5749 45.58 35.4035 45.58V53.58ZM39.0888 52.794C40.4396 52.1436 41.4648 51.1082 42.1394 49.8489L35.0876 46.0711C35.1146 46.0208 35.1741 45.9279 35.2794 45.8252C35.3864 45.7208 35.5058 45.6401 35.6183 45.586L39.0888 52.794ZM42.1158 49.8923C42.7219 48.7938 43.0646 47.588 43.2538 46.3985L35.3532 45.1415C35.2624 45.712 35.1452 45.9662 35.1112 46.0277L42.1158 49.8923ZM43.2538 46.3985C43.4369 45.2478 43.5135 43.9656 43.5135 42.59H35.5135C35.5135 43.6944 35.4501 44.5322 35.3532 45.1415L43.2538 46.3985ZM43.5135 42.59V41.84H35.5135V42.59H43.5135ZM43.5135 41.84C43.5135 40.4644 43.4369 39.1822 43.2538 38.0315L35.3532 39.2885C35.4501 39.8978 35.5135 40.7356 35.5135 41.84H43.5135ZM43.2538 38.0315C43.0648 36.8436 42.7186 35.6216 42.0865 34.5154L35.1405 38.4846C35.1402 38.484 35.1718 38.5398 35.2157 38.6772C35.2595 38.8143 35.3095 39.0137 35.3532 39.2885L43.2538 38.0315ZM42.1664 34.6623C41.5058 33.3851 40.481 32.3063 39.0888 31.636L35.6183 38.844C35.4866 38.7806 35.3562 38.6895 35.2451 38.5784C35.1367 38.47 35.0811 38.3772 35.0606 38.3377L42.1664 34.6623ZM39.1424 31.6623C37.9105 31.0464 36.6021 30.85 35.4035 30.85V38.85C35.5749 38.85 35.6654 38.8646 35.6916 38.8698C35.7157 38.8747 35.6635 38.8671 35.5647 38.8177L39.1424 31.6623ZM58.567 33.92L55.2901 36.2138L55.2986 36.226L55.3072 36.2381L58.567 33.92ZM58.567 50.51L55.3072 48.1919L55.2986 48.204L55.2901 48.2162L58.567 50.51ZM46.417 50.51L43.1401 52.8039L43.1486 52.816L43.1572 52.8281L46.417 50.51ZM46.417 33.92L43.1572 31.6019L43.1486 31.614L43.1401 31.6261L46.417 33.92ZM50.527 35.24L48.7918 31.636L48.7649 31.6489L48.7382 31.6623L50.527 35.24ZM49.267 36.5L45.7647 34.5677L45.7528 34.5893L45.7411 34.6111L49.267 36.5ZM48.607 38.66L44.6567 38.0315L48.607 38.66ZM48.607 45.77L44.6567 46.3985L48.607 45.77ZM49.267 47.96L45.7142 49.7977L45.7526 49.872L45.7941 49.9446L49.267 47.96ZM50.527 49.19L48.7382 52.7677L48.7649 52.7811L48.7918 52.794L50.527 49.19ZM54.457 49.19L52.7218 45.586L52.6949 45.5989L52.6682 45.6123L54.457 49.19ZM55.717 47.96L52.2147 46.0277L52.2028 46.0493L52.1911 46.0711L55.717 47.96ZM56.407 45.77L60.3574 46.3985L56.407 45.77ZM55.717 36.5L52.1642 38.3377L52.2026 38.412L52.2441 38.4846L55.717 36.5ZM54.457 35.24L52.6682 38.8177L52.6949 38.8311L52.7218 38.844L54.457 35.24ZM52.507 35.22C54.3691 35.22 54.9762 35.7654 55.2901 36.2138L61.844 31.6261C59.6379 28.4746 56.205 27.22 52.507 27.22V35.22ZM55.3072 36.2381C55.9212 37.1015 56.487 38.7124 56.487 41.57H64.487C64.487 37.8276 63.7729 34.3385 61.8269 31.6019L55.3072 36.2381ZM56.487 41.57V42.86H64.487V41.57H56.487ZM56.487 42.86C56.487 45.7176 55.9212 47.3285 55.3072 48.1919L61.8269 52.8281C63.7729 50.0915 64.487 46.6024 64.487 42.86H56.487ZM55.2901 48.2162C54.9762 48.6646 54.3691 49.21 52.507 49.21V57.21C56.205 57.21 59.6379 55.9554 61.844 52.8038L55.2901 48.2162ZM52.507 49.21C50.6476 49.21 50.0131 48.6648 49.6769 48.1919L43.1572 52.8281C45.381 55.9552 48.8065 57.21 52.507 57.21V49.21ZM49.694 48.2162C49.0867 47.3486 48.527 45.7276 48.527 42.86H40.527C40.527 46.5924 41.2274 50.0714 43.1401 52.8039L49.694 48.2162ZM48.527 42.86V41.57H40.527V42.86H48.527ZM48.527 41.57C48.527 38.7024 49.0867 37.0814 49.694 36.2138L43.1401 31.6261C41.2274 34.3586 40.527 37.8376 40.527 41.57H48.527ZM49.6769 36.2381C50.0131 35.7652 50.6476 35.22 52.507 35.22V27.22C48.8065 27.22 45.381 28.4748 43.1572 31.6019L49.6769 36.2381ZM52.507 30.85C51.3004 30.85 50.0107 31.0491 48.7918 31.636L52.2623 38.844C52.1918 38.878 52.1631 38.8794 52.2001 38.8721C52.2389 38.8644 52.3365 38.85 52.507 38.85V30.85ZM48.7382 31.6623C47.3957 32.3335 46.4196 33.3807 45.7647 34.5677L52.7693 38.4323C52.7685 38.4338 52.7346 38.4943 52.6505 38.5784C52.5631 38.6658 52.4488 38.7513 52.3159 38.8177L48.7382 31.6623ZM45.7411 34.6111C45.1642 35.688 44.8408 36.8741 44.6567 38.0315L52.5574 39.2885C52.6532 38.6859 52.7698 38.432 52.7929 38.3889L45.7411 34.6111ZM44.6567 38.0315C44.4737 39.1822 44.397 40.4644 44.397 41.84H52.397C52.397 40.7356 52.4604 39.8978 52.5574 39.2885L44.6567 38.0315ZM44.397 41.84V42.59H52.397V41.84H44.397ZM44.397 42.59C44.397 43.9656 44.4737 45.2478 44.6567 46.3985L52.5574 45.1415C52.4604 44.5322 52.397 43.6944 52.397 42.59H44.397ZM44.6567 46.3985C44.8411 47.5574 45.1611 48.7284 45.7142 49.7977L52.8199 46.1223C52.773 46.0316 52.653 45.7426 52.5574 45.1415L44.6567 46.3985ZM45.7941 49.9446C46.4613 51.1123 47.4356 52.1164 48.7382 52.7677L52.3159 45.6123C52.4295 45.6691 52.533 45.744 52.6162 45.8252C52.697 45.9041 52.7337 45.9643 52.74 45.9754L45.7941 49.9446ZM48.7918 52.794C50.0107 53.3809 51.3004 53.58 52.507 53.58V45.58C52.3365 45.58 52.2389 45.5656 52.2001 45.5579C52.1631 45.5506 52.1918 45.552 52.2623 45.586L48.7918 52.794ZM52.507 53.58C53.7056 53.58 55.0141 53.3836 56.2459 52.7677L52.6682 45.6123C52.767 45.5629 52.8192 45.5553 52.7951 45.5602C52.7689 45.5654 52.6785 45.58 52.507 45.58V53.58ZM56.1923 52.794C57.5431 52.1436 58.5683 51.1082 59.243 49.8489L52.1911 46.0711C52.2181 46.0208 52.2776 45.9279 52.3829 45.8252C52.4899 45.7208 52.6093 45.6401 52.7218 45.586L56.1923 52.794ZM59.2193 49.8923C59.8254 48.7938 60.1681 47.588 60.3574 46.3985L52.4567 45.1415C52.366 45.712 52.2487 45.9662 52.2147 46.0277L59.2193 49.8923ZM60.3574 46.3985C60.5404 45.2478 60.617 43.9656 60.617 42.59H52.617C52.617 43.6944 52.5537 44.5322 52.4567 45.1415L60.3574 46.3985ZM60.617 42.59V41.84H52.617V42.59H60.617ZM60.617 41.84C60.617 40.4644 60.5404 39.1822 60.3574 38.0315L52.4567 39.2885C52.5537 39.8978 52.617 40.7356 52.617 41.84H60.617ZM60.3574 38.0315C60.1684 36.8436 59.8221 35.6216 59.19 34.5154L52.2441 38.4846C52.2437 38.484 52.2753 38.5398 52.3192 38.6772C52.363 38.8143 52.413 39.0137 52.4567 39.2885L60.3574 38.0315ZM59.2699 34.6623C58.6093 33.3851 57.5846 32.3063 56.1923 31.636L52.7218 38.844C52.5901 38.7806 52.4597 38.6895 52.3486 38.5784C52.2402 38.47 52.1846 38.3772 52.1642 38.3377L59.2699 34.6623ZM56.2459 31.6623C55.0141 31.0464 53.7056 30.85 52.507 30.85V38.85C52.6784 38.85 52.7689 38.8646 52.7951 38.8698C52.8192 38.8747 52.767 38.8671 52.6682 38.8177L56.2459 31.6623ZM75.6705 33.92L72.3936 36.2138L72.4021 36.226L72.4107 36.2381L75.6705 33.92ZM75.6705 50.51L72.4107 48.1919L72.4021 48.204L72.3936 48.2162L75.6705 50.51ZM63.5205 50.51L60.2436 52.8039L60.2521 52.816L60.2607 52.8281L63.5205 50.51ZM63.5205 33.92L60.2607 31.6019L60.2521 31.614L60.2436 31.6261L63.5205 33.92ZM67.6305 35.24L65.8953 31.636L65.8684 31.6489L65.8417 31.6623L67.6305 35.24ZM66.3705 36.5L62.8682 34.5677L62.8563 34.5893L62.8446 34.6111L66.3705 36.5ZM65.7105 38.66L61.7602 38.0315L65.7105 38.66ZM65.7105 45.77L61.7602 46.3985L65.7105 45.77ZM66.3705 47.96L62.8177 49.7977L62.8561 49.872L62.8976 49.9446L66.3705 47.96ZM67.6305 49.19L65.8417 52.7677L65.8684 52.7811L65.8953 52.794L67.6305 49.19ZM71.5605 49.19L69.8253 45.586L69.7984 45.5989L69.7717 45.6123L71.5605 49.19ZM72.8205 47.96L69.3182 46.0277L69.3063 46.0493L69.2946 46.0711L72.8205 47.96ZM73.5106 45.77L77.4609 46.3985L73.5106 45.77ZM72.8205 36.5L69.2677 38.3377L69.3061 38.412L69.3476 38.4846L72.8205 36.5ZM71.5605 35.24L69.7717 38.8177L69.7984 38.8311L69.8253 38.844L71.5605 35.24ZM69.6105 35.22C71.4726 35.22 72.0797 35.7654 72.3936 36.2138L78.9475 31.6261C76.7414 28.4746 73.3085 27.22 69.6105 27.22V35.22ZM72.4107 36.2381C73.0247 37.1015 73.5905 38.7124 73.5905 41.57H81.5905C81.5905 37.8276 80.8764 34.3385 78.9304 31.6019L72.4107 36.2381ZM73.5905 41.57V42.86H81.5905V41.57H73.5905ZM73.5905 42.86C73.5905 45.7176 73.0247 47.3285 72.4107 48.1919L78.9304 52.8281C80.8764 50.0915 81.5905 46.6024 81.5905 42.86H73.5905ZM72.3936 48.2162C72.0797 48.6646 71.4726 49.21 69.6105 49.21V57.21C73.3085 57.21 76.7414 55.9554 78.9475 52.8038L72.3936 48.2162ZM69.6105 49.21C67.7511 49.21 67.1166 48.6648 66.7804 48.1919L60.2607 52.8281C62.4845 55.9552 65.91 57.21 69.6105 57.21V49.21ZM66.7975 48.2162C66.1902 47.3486 65.6305 45.7276 65.6305 42.86H57.6305C57.6305 46.5924 58.3309 50.0714 60.2436 52.8039L66.7975 48.2162ZM65.6305 42.86V41.57H57.6305V42.86H65.6305ZM65.6305 41.57C65.6305 38.7024 66.1902 37.0814 66.7975 36.2138L60.2436 31.6261C58.3309 34.3586 57.6305 37.8376 57.6305 41.57H65.6305ZM66.7804 36.2381C67.1166 35.7652 67.7511 35.22 69.6105 35.22V27.22C65.91 27.22 62.4845 28.4748 60.2607 31.6019L66.7804 36.2381ZM69.6105 30.85C68.4039 30.85 67.1142 31.0491 65.8953 31.636L69.3658 38.844C69.2953 38.878 69.2666 38.8794 69.3036 38.8721C69.3425 38.8644 69.44 38.85 69.6105 38.85V30.85ZM65.8417 31.6623C64.4992 32.3335 63.5231 33.3807 62.8682 34.5677L69.8729 38.4323C69.872 38.4338 69.8381 38.4943 69.754 38.5784C69.6666 38.6658 69.5523 38.7513 69.4194 38.8177L65.8417 31.6623ZM62.8446 34.6111C62.2677 35.688 61.9444 36.8741 61.7602 38.0315L69.6609 39.2885C69.7567 38.6859 69.8734 38.432 69.8965 38.3889L62.8446 34.6111ZM61.7602 38.0315C61.5772 39.1822 61.5005 40.4644 61.5005 41.84H69.5005C69.5005 40.7356 69.5639 39.8978 69.6609 39.2885L61.7602 38.0315ZM61.5005 41.84V42.59H69.5005V41.84H61.5005ZM61.5005 42.59C61.5005 43.9656 61.5772 45.2478 61.7602 46.3985L69.6609 45.1415C69.5639 44.5322 69.5005 43.6944 69.5005 42.59H61.5005ZM61.7602 46.3985C61.9446 47.5574 62.2646 48.7284 62.8177 49.7977L69.9234 46.1223C69.8765 46.0316 69.7565 45.7426 69.6609 45.1415L61.7602 46.3985ZM62.8976 49.9446C63.5648 51.1123 64.5391 52.1164 65.8417 52.7677L69.4194 45.6123C69.5331 45.6691 69.6365 45.744 69.7197 45.8252C69.8005 45.9041 69.8372 45.9643 69.8435 45.9754L62.8976 49.9446ZM65.8953 52.794C67.1142 53.3809 68.4039 53.58 69.6105 53.58V45.58C69.44 45.58 69.3425 45.5656 69.3036 45.5579C69.2666 45.5506 69.2953 45.552 69.3658 45.586L65.8953 52.794ZM69.6105 53.58C70.8091 53.58 72.1176 53.3836 73.3494 52.7677L69.7717 45.6123C69.8705 45.5629 69.9228 45.5553 69.8986 45.5602C69.8724 45.5654 69.782 45.58 69.6105 45.58V53.58ZM73.2958 52.794C74.6466 52.1436 75.6718 51.1082 76.3465 49.8489L69.2946 46.0711C69.3216 46.0208 69.3812 45.9279 69.4864 45.8252C69.5934 45.7208 69.7128 45.6401 69.8253 45.586L73.2958 52.794ZM76.3229 49.8923C76.9289 48.7938 77.2716 47.588 77.4609 46.3985L69.5602 45.1415C69.4695 45.712 69.3522 45.9662 69.3182 46.0277L76.3229 49.8923ZM77.4609 46.3985C77.6439 45.2478 77.7206 43.9656 77.7206 42.59H69.7205C69.7205 43.6944 69.6572 44.5322 69.5602 45.1415L77.4609 46.3985ZM77.7206 42.59V41.84H69.7205V42.59H77.7206ZM77.7206 41.84C77.7206 40.4644 77.6439 39.1822 77.4609 38.0315L69.5602 39.2885C69.6572 39.8978 69.7205 40.7356 69.7205 41.84H77.7206ZM77.4609 38.0315C77.2719 36.8436 76.9256 35.6216 76.2935 34.5154L69.3476 38.4846C69.3473 38.484 69.3789 38.5398 69.4227 38.6772C69.4665 38.8143 69.5165 39.0137 69.5602 39.2885L77.4609 38.0315ZM76.3734 34.6623C75.7128 33.3851 74.6881 32.3063 73.2958 31.636L69.8253 38.844C69.6936 38.7806 69.5632 38.6895 69.4521 38.5784C69.3437 38.47 69.2881 38.3772 69.2677 38.3377L76.3734 34.6623ZM73.3494 31.6623C72.1176 31.0464 70.8091 30.85 69.6105 30.85V38.85C69.782 38.85 69.8724 38.8646 69.8986 38.8698C69.9228 38.8747 69.8705 38.8671 69.7717 38.8177L73.3494 31.6623Z" fill="#E18006" mask="url(#path-3-outside-1_1531_1524)"/>
</g>
<defs>
<filter id="filter0_d_1531_1524" x="0.266667" y="0.0888889" width="87.4667" height="87.4667" filterUnits="userSpaceOnUse" color-interpolation-filters="sRGB">
<feFlood flood-opacity="0" result="BackgroundImageFix"/>
<feColorMatrix in="SourceAlpha" type="matrix" values="0 0 0 0 0 0 0 0 0 0 0 0 0 0 0 0 0 0 127 0" result="hardAlpha"/>
<feOffset dy="1.82222"/>
<feGaussianBlur stdDeviation="1.36667"/>
<feComposite in2="hardAlpha" operator="out"/>
<feColorMatrix type="matrix" values="0 0 0 0 0 0 0 0 0 0 0 0 0 0 0 0 0 0 0.15 0"/>
<feBlend mode="normal" in2="BackgroundImageFix" result="effect1_dropShadow_1531_1524"/>
<feBlend mode="normal" in="SourceGraphic" in2="effect1_dropShadow_1531_1524" result="shape"/>
</filter>
</defs>
</svg>
