<svg width="88" height="88" viewBox="0 0 88 88" fill="none" xmlns="http://www.w3.org/2000/svg">
<g filter="url(#filter0_d_1531_1468)">
<rect x="3" y="1" width="82" height="82" rx="41" fill="#00B4FF"/>
<rect x="5.27778" y="3.27778" width="77.4444" height="77.4444" rx="38.7222" stroke="#1779F2" stroke-width="4.55556"/>
<mask id="path-3-outside-1_1531_1468" maskUnits="userSpaceOnUse" x="22.5" y="25.5" width="44" height="34" fill="black">
<rect fill="white" x="22.5" y="25.5" width="44" height="34"/>
<path d="M36.352 29.986C37.0093 29.986 37.5533 30.1333 37.984 30.428C38.4147 30.7227 38.63 31.1987 38.63 31.856V52.698C38.63 53.3553 38.4147 53.8313 37.984 54.126C37.5533 54.4207 37.0433 54.568 36.454 54.568C35.8647 54.568 35.3547 54.4207 34.924 54.126C34.4933 53.8313 34.278 53.3553 34.278 52.698V35.086L29.892 37.602C29.3253 37.9193 28.7927 37.9873 28.294 37.806C27.7953 37.602 27.41 37.2507 27.138 36.752C26.8887 36.2987 26.8093 35.8113 26.9 35.29C26.9907 34.7687 27.2967 34.3607 27.818 34.066L33.564 30.87C34.1533 30.5527 34.6633 30.326 35.094 30.19C35.5247 30.054 35.944 29.986 36.352 29.986ZM53.424 29.816C56.5747 29.816 58.864 30.836 60.292 32.876C61.7427 34.916 62.468 37.806 62.468 41.546V43.008C62.468 46.748 61.7427 49.638 60.292 51.678C58.864 53.718 56.5747 54.738 53.424 54.738C50.2733 54.738 47.9727 53.718 46.522 51.678C45.094 49.638 44.38 46.748 44.38 43.008V41.546C44.38 37.806 45.094 34.916 46.522 32.876C47.9727 30.836 50.2733 29.816 53.424 29.816ZM53.424 33.93C52.54 33.93 51.792 34.0773 51.18 34.372C50.5907 34.6667 50.1147 35.1427 49.752 35.8C49.412 36.4347 49.1627 37.2507 49.004 38.248C48.8453 39.2453 48.766 40.4467 48.766 41.852V42.702C48.766 44.1073 48.8453 45.3087 49.004 46.306C49.1627 47.3033 49.412 48.1307 49.752 48.788C50.1147 49.4227 50.5907 49.8873 51.18 50.182C51.792 50.4767 52.54 50.624 53.424 50.624C54.308 50.624 55.0447 50.4767 55.634 50.182C56.246 49.8873 56.722 49.4227 57.062 48.788C57.4247 48.1307 57.6853 47.3033 57.844 46.306C58.0027 45.3087 58.082 44.1073 58.082 42.702V41.852C58.082 40.4467 58.0027 39.2453 57.844 38.248C57.6853 37.2507 57.4247 36.4347 57.062 35.8C56.722 35.1427 56.246 34.6667 55.634 34.372C55.0447 34.0773 54.308 33.93 53.424 33.93Z"/>
</mask>
<path d="M36.352 29.986C37.0093 29.986 37.5533 30.1333 37.984 30.428C38.4147 30.7227 38.63 31.1987 38.63 31.856V52.698C38.63 53.3553 38.4147 53.8313 37.984 54.126C37.5533 54.4207 37.0433 54.568 36.454 54.568C35.8647 54.568 35.3547 54.4207 34.924 54.126C34.4933 53.8313 34.278 53.3553 34.278 52.698V35.086L29.892 37.602C29.3253 37.9193 28.7927 37.9873 28.294 37.806C27.7953 37.602 27.41 37.2507 27.138 36.752C26.8887 36.2987 26.8093 35.8113 26.9 35.29C26.9907 34.7687 27.2967 34.3607 27.818 34.066L33.564 30.87C34.1533 30.5527 34.6633 30.326 35.094 30.19C35.5247 30.054 35.944 29.986 36.352 29.986ZM53.424 29.816C56.5747 29.816 58.864 30.836 60.292 32.876C61.7427 34.916 62.468 37.806 62.468 41.546V43.008C62.468 46.748 61.7427 49.638 60.292 51.678C58.864 53.718 56.5747 54.738 53.424 54.738C50.2733 54.738 47.9727 53.718 46.522 51.678C45.094 49.638 44.38 46.748 44.38 43.008V41.546C44.38 37.806 45.094 34.916 46.522 32.876C47.9727 30.836 50.2733 29.816 53.424 29.816ZM53.424 33.93C52.54 33.93 51.792 34.0773 51.18 34.372C50.5907 34.6667 50.1147 35.1427 49.752 35.8C49.412 36.4347 49.1627 37.2507 49.004 38.248C48.8453 39.2453 48.766 40.4467 48.766 41.852V42.702C48.766 44.1073 48.8453 45.3087 49.004 46.306C49.1627 47.3033 49.412 48.1307 49.752 48.788C50.1147 49.4227 50.5907 49.8873 51.18 50.182C51.792 50.4767 52.54 50.624 53.424 50.624C54.308 50.624 55.0447 50.4767 55.634 50.182C56.246 49.8873 56.722 49.4227 57.062 48.788C57.4247 48.1307 57.6853 47.3033 57.844 46.306C58.0027 45.3087 58.082 44.1073 58.082 42.702V41.852C58.082 40.4467 58.0027 39.2453 57.844 38.248C57.6853 37.2507 57.4247 36.4347 57.062 35.8C56.722 35.1427 56.246 34.6667 55.634 34.372C55.0447 34.0773 54.308 33.93 53.424 33.93Z" fill="white"/>
<path d="M37.984 30.428L35.7253 33.7292L35.7253 33.7292L37.984 30.428ZM37.984 54.126L40.2427 57.4272L40.2427 57.4272L37.984 54.126ZM34.924 54.126L37.1827 50.8248L37.1827 50.8248L34.924 54.126ZM34.278 35.086H38.278V28.18L32.2877 31.6163L34.278 35.086ZM29.892 37.602L31.8464 41.092L31.8644 41.0819L31.8823 41.0717L29.892 37.602ZM28.294 37.806L26.7795 41.5082L26.8527 41.5381L26.927 41.5652L28.294 37.806ZM27.138 36.752L30.6496 34.8366L30.6429 34.8243L27.138 36.752ZM26.9 35.29L30.8408 35.9754L30.8408 35.9754L26.9 35.29ZM27.818 34.066L25.8737 30.5703L25.8617 30.577L25.8498 30.5837L27.818 34.066ZM33.564 30.87L31.6676 27.3481L31.6435 27.3611L31.6197 27.3743L33.564 30.87ZM36.352 33.986C36.413 33.986 36.1142 33.9953 35.7253 33.7292L40.2427 27.1268C38.9925 26.2713 37.6057 25.986 36.352 25.986V33.986ZM35.7253 33.7292C35.3354 33.4625 35.0179 33.0832 34.8241 32.6547C34.6451 32.2591 34.63 31.9537 34.63 31.856H42.63C42.63 30.2641 42.0469 28.3612 40.2427 27.1268L35.7253 33.7292ZM34.63 31.856V52.698H42.63V31.856H34.63ZM34.63 52.698C34.63 52.6003 34.6451 52.2949 34.8241 51.8993C35.0179 51.4708 35.3354 51.0915 35.7253 50.8248L40.2427 57.4272C42.0469 56.1928 42.63 54.2899 42.63 52.698H34.63ZM35.7253 50.8248C35.8676 50.7274 36.0213 50.6571 36.1683 50.6146C36.3114 50.5733 36.4139 50.568 36.454 50.568V58.568C37.7414 58.568 39.0628 58.2345 40.2427 57.4272L35.7253 50.8248ZM36.454 50.568C36.4941 50.568 36.5966 50.5733 36.7397 50.6146C36.8867 50.6571 37.0404 50.7274 37.1827 50.8248L32.6653 57.4272C33.8452 58.2345 35.1666 58.568 36.454 58.568V50.568ZM37.1827 50.8248C37.5726 51.0915 37.8901 51.4708 38.0839 51.8993C38.2629 52.2949 38.278 52.6003 38.278 52.698H30.278C30.278 54.2899 30.8611 56.1928 32.6653 57.4272L37.1827 50.8248ZM38.278 52.698V35.086H30.278V52.698H38.278ZM32.2877 31.6163L27.9017 34.1323L31.8823 41.0717L36.2683 38.5557L32.2877 31.6163ZM27.9376 34.112C28.0104 34.0712 28.224 33.9662 28.561 33.9232C28.9189 33.8775 29.3039 33.917 29.661 34.0468L26.927 41.5652C28.7606 42.2319 30.5123 41.8391 31.8464 41.092L27.9376 34.112ZM29.8085 34.1038C29.9788 34.1735 30.1605 34.2828 30.326 34.4337C30.4894 34.5826 30.592 34.731 30.6496 34.8366L23.6264 38.6674C24.3131 39.9263 25.3809 40.9361 26.7795 41.5082L29.8085 34.1038ZM30.6429 34.8243C30.7275 34.9782 30.8024 35.1757 30.8395 35.4038C30.8765 35.6307 30.8664 35.8284 30.8408 35.9754L22.9592 34.6046C22.7166 35.9991 22.9352 37.4107 23.6331 38.6797L30.6429 34.8243ZM30.8408 35.9754C30.7822 36.3126 30.6377 36.6727 30.3975 36.993C30.1664 37.3011 29.9237 37.4705 29.7862 37.5483L25.8498 30.5837C24.4399 31.3806 23.2838 32.7379 22.9592 34.6046L30.8408 35.9754ZM29.7623 37.5617L35.5083 34.3657L31.6197 27.3743L25.8737 30.5703L29.7623 37.5617ZM35.4604 34.3919C35.9236 34.1425 36.1916 34.0381 36.2985 34.0043L33.8895 26.3757C33.1351 26.6139 32.3831 26.9628 31.6676 27.3481L35.4604 34.3919ZM36.2985 34.0043C36.3408 33.991 36.3648 33.9866 36.3718 33.9854C36.3784 33.9843 36.3711 33.986 36.352 33.986V25.986C35.4942 25.986 34.6685 26.1297 33.8895 26.3757L36.2985 34.0043ZM60.292 32.876L57.0151 35.1698L57.0236 35.182L57.0322 35.1941L60.292 32.876ZM60.292 51.678L57.0322 49.3599L57.0236 49.372L57.0151 49.3842L60.292 51.678ZM46.522 51.678L43.2451 53.9718L43.2536 53.984L43.2622 53.9961L46.522 51.678ZM46.522 32.876L43.2622 30.5579L43.2536 30.57L43.2451 30.5821L46.522 32.876ZM51.18 34.372L49.4447 30.768L49.4178 30.7809L49.3911 30.7943L51.18 34.372ZM49.752 35.8L46.2497 33.8677L46.2377 33.8893L46.2261 33.9111L49.752 35.8ZM49.004 38.248L45.0537 37.6195L49.004 38.248ZM49.004 46.306L45.0537 46.9345L49.004 46.306ZM49.752 48.788L46.1991 50.6257L46.2375 50.7L46.279 50.7726L49.752 48.788ZM51.18 50.182L49.3911 53.7597L49.4178 53.7731L49.4447 53.786L51.18 50.182ZM55.634 50.182L53.8987 46.578L53.8718 46.5909L53.8451 46.6043L55.634 50.182ZM57.062 48.788L53.5597 46.8557L53.5477 46.8773L53.5361 46.8991L57.062 48.788ZM57.844 46.306L61.7943 46.9345H61.7943L57.844 46.306ZM57.062 35.8L53.5091 37.6377L53.5475 37.712L53.589 37.7846L57.062 35.8ZM55.634 34.372L53.8451 37.9497L53.8718 37.9631L53.8987 37.976L55.634 34.372ZM53.424 33.816C55.6567 33.816 56.5331 34.4814 57.0151 35.1698L63.5689 30.5821C61.1948 27.1906 57.4926 25.816 53.424 25.816V33.816ZM57.0322 35.1941C57.8168 36.2975 58.468 38.2484 58.468 41.546H66.468C66.468 37.3636 65.6685 33.5345 63.5518 30.5579L57.0322 35.1941ZM58.468 41.546V43.008H66.468V41.546H58.468ZM58.468 43.008C58.468 46.3056 57.8168 48.2565 57.0322 49.3599L63.5518 53.9961C65.6685 51.0195 66.468 47.1904 66.468 43.008H58.468ZM57.0151 49.3842C56.5331 50.0726 55.6567 50.738 53.424 50.738V58.738C57.4926 58.738 61.1948 57.3634 63.5689 53.9718L57.0151 49.3842ZM53.424 50.738C51.1939 50.738 50.2887 50.0728 49.7818 49.3599L43.2622 53.9961C45.6566 57.3632 49.3528 58.738 53.424 58.738V50.738ZM49.7989 49.3841C49.0237 48.2766 48.38 46.3156 48.38 43.008H40.38C40.38 47.1804 41.1643 50.9994 43.2451 53.9718L49.7989 49.3841ZM48.38 43.008V41.546H40.38V43.008H48.38ZM48.38 41.546C48.38 38.2384 49.0237 36.2774 49.7989 35.1698L43.2451 30.5821C41.1643 33.5546 40.38 37.3736 40.38 41.546H48.38ZM49.7818 35.1941C50.2887 34.4812 51.1939 33.816 53.424 33.816V25.816C49.3528 25.816 45.6566 27.1907 43.2622 30.5579L49.7818 35.1941ZM53.424 29.93C52.1133 29.93 50.7357 30.1464 49.4447 30.768L52.9152 37.976C52.8483 38.0082 52.9667 37.93 53.424 37.93V29.93ZM49.3911 30.7943C47.9793 31.5002 46.9473 32.6033 46.2497 33.8677L53.2543 37.7323C53.2748 37.6951 53.2656 37.7223 53.2094 37.7784C53.1501 37.8378 53.0671 37.9006 52.9688 37.9497L49.3911 30.7943ZM46.2261 33.9111C45.6092 35.0627 45.2565 36.3448 45.0537 37.6195L52.9543 38.8765C53.0688 38.1565 53.2148 37.8067 53.2779 37.6889L46.2261 33.9111ZM45.0537 37.6195C44.8519 38.8875 44.766 40.3111 44.766 41.852H52.766C52.766 40.5822 52.8387 39.6032 52.9543 38.8765L45.0537 37.6195ZM44.766 41.852V42.702H52.766V41.852H44.766ZM44.766 42.702C44.766 44.2429 44.8519 45.6665 45.0537 46.9345L52.9543 45.6775C52.8387 44.9508 52.766 43.9718 52.766 42.702H44.766ZM45.0537 46.9345C45.2567 48.2108 45.606 49.4791 46.1991 50.6257L53.3049 46.9503C53.2179 46.7823 53.0686 46.3959 52.9543 45.6775L45.0537 46.9345ZM46.279 50.7726C46.9889 52.0149 48.0192 53.0738 49.3911 53.7597L52.9688 46.6043C53.0478 46.6438 53.1199 46.6963 53.1751 46.7502C53.2279 46.8017 53.2399 46.8297 53.225 46.8034L46.279 50.7726ZM49.4447 53.786C50.7357 54.4076 52.1133 54.624 53.424 54.624V46.624C52.9667 46.624 52.8483 46.5458 52.9152 46.578L49.4447 53.786ZM53.424 54.624C54.7266 54.624 56.1217 54.4103 57.4228 53.7597L53.8451 46.6043C53.9093 46.5722 53.9225 46.5777 53.855 46.5912C53.7855 46.6051 53.6474 46.624 53.424 46.624V54.624ZM57.3692 53.786C58.792 53.101 59.8733 52.0109 60.5879 50.6769L53.5361 46.8991C53.543 46.8861 53.5786 46.8256 53.6558 46.7502C53.7348 46.6731 53.8222 46.6148 53.8987 46.578L57.3692 53.786ZM60.5643 50.7203C61.213 49.5445 61.5864 48.2413 61.7943 46.9345L53.8937 45.6775C53.7842 46.3654 53.6363 46.7168 53.5597 46.8557L60.5643 50.7203ZM61.7943 46.9345C61.996 45.6665 62.082 44.2429 62.082 42.702H54.082C54.082 43.9718 54.0093 44.9508 53.8937 45.6775L61.7943 46.9345ZM62.082 42.702V41.852H54.082V42.702H62.082ZM62.082 41.852C62.082 40.3111 61.996 38.8875 61.7943 37.6195L53.8937 38.8765C54.0093 39.6032 54.082 40.5822 54.082 41.852H62.082ZM61.7943 37.6195C61.5866 36.3142 61.2097 34.9963 60.535 33.8154L53.589 37.7846C53.6396 37.873 53.784 38.1871 53.8937 38.8765L61.7943 37.6195ZM60.6149 33.9623C59.9142 32.6078 58.8335 31.473 57.3692 30.768L53.8987 37.976C53.803 37.9299 53.7046 37.8615 53.6216 37.7784C53.5828 37.7396 53.5545 37.7048 53.5353 37.6782C53.5164 37.652 53.5087 37.6369 53.5091 37.6377L60.6149 33.9623ZM57.4228 30.7943C56.1217 30.1437 54.7266 29.93 53.424 29.93V37.93C53.6474 37.93 53.7855 37.9489 53.855 37.9628C53.9225 37.9763 53.9093 37.9818 53.8451 37.9497L57.4228 30.7943Z" fill="#0089D0" mask="url(#path-3-outside-1_1531_1468)"/>
</g>
<defs>
<filter id="filter0_d_1531_1468" x="0.266667" y="0.0888889" width="87.4667" height="87.4667" filterUnits="userSpaceOnUse" color-interpolation-filters="sRGB">
<feFlood flood-opacity="0" result="BackgroundImageFix"/>
<feColorMatrix in="SourceAlpha" type="matrix" values="0 0 0 0 0 0 0 0 0 0 0 0 0 0 0 0 0 0 127 0" result="hardAlpha"/>
<feOffset dy="1.82222"/>
<feGaussianBlur stdDeviation="1.36667"/>
<feComposite in2="hardAlpha" operator="out"/>
<feColorMatrix type="matrix" values="0 0 0 0 0 0 0 0 0 0 0 0 0 0 0 0 0 0 0.15 0"/>
<feBlend mode="normal" in2="BackgroundImageFix" result="effect1_dropShadow_1531_1468"/>
<feBlend mode="normal" in="SourceGraphic" in2="effect1_dropShadow_1531_1468" result="shape"/>
</filter>
</defs>
</svg>
