<svg width="88" height="88" viewBox="0 0 88 88" fill="none" xmlns="http://www.w3.org/2000/svg">
<g filter="url(#filter0_d_1531_1557)">
<rect x="3" y="1" width="82" height="82" rx="41" fill="#C38ACD"/>
<rect x="5" y="3" width="78" height="78" rx="39" stroke="#6F3F78" stroke-width="4"/>
<mask id="path-3-outside-1_1531_1557" maskUnits="userSpaceOnUse" x="7" y="28.5" width="75" height="27" fill="black">
<rect fill="white" x="7" y="28.5" width="75" height="27"/>
<path d="M18.072 33.196C18.536 33.196 18.92 33.3 19.224 33.508C19.528 33.716 19.68 34.052 19.68 34.516V49.228C19.68 49.692 19.528 50.028 19.224 50.236C18.92 50.444 18.56 50.548 18.144 50.548C17.728 50.548 17.368 50.444 17.064 50.236C16.76 50.028 16.608 49.692 16.608 49.228V36.796L13.512 38.572C13.112 38.796 12.736 38.844 12.384 38.716C12.032 38.572 11.76 38.324 11.568 37.972C11.392 37.652 11.336 37.308 11.4 36.94C11.464 36.572 11.68 36.284 12.048 36.076L16.104 33.82C16.52 33.596 16.88 33.436 17.184 33.34C17.488 33.244 17.784 33.196 18.072 33.196ZM30.1228 33.076C32.3468 33.076 33.9628 33.796 34.9708 35.236C35.9948 36.676 36.5068 38.716 36.5068 41.356V42.388C36.5068 45.028 35.9948 47.068 34.9708 48.508C33.9628 49.948 32.3468 50.668 30.1228 50.668C27.8988 50.668 26.2748 49.948 25.2508 48.508C24.2428 47.068 23.7388 45.028 23.7388 42.388V41.356C23.7388 38.716 24.2428 36.676 25.2508 35.236C26.2748 33.796 27.8988 33.076 30.1228 33.076ZM30.1228 35.98C29.4988 35.98 28.9708 36.084 28.5388 36.292C28.1228 36.5 27.7868 36.836 27.5308 37.3C27.2908 37.748 27.1148 38.324 27.0028 39.028C26.8908 39.732 26.8348 40.58 26.8348 41.572V42.172C26.8348 43.164 26.8908 44.012 27.0028 44.716C27.1148 45.42 27.2908 46.004 27.5308 46.468C27.7868 46.916 28.1228 47.244 28.5388 47.452C28.9708 47.66 29.4988 47.764 30.1228 47.764C30.7468 47.764 31.2668 47.66 31.6828 47.452C32.1148 47.244 32.4508 46.916 32.6908 46.468C32.9468 46.004 33.1308 45.42 33.2428 44.716C33.3548 44.012 33.4108 43.164 33.4108 42.172V41.572C33.4108 40.58 33.3548 39.732 33.2428 39.028C33.1308 38.324 32.9468 37.748 32.6908 37.3C32.4508 36.836 32.1148 36.5 31.6828 36.292C31.2668 36.084 30.7468 35.98 30.1228 35.98ZM43.8056 33.076C46.0296 33.076 47.6456 33.796 48.6536 35.236C49.6776 36.676 50.1896 38.716 50.1896 41.356V42.388C50.1896 45.028 49.6776 47.068 48.6536 48.508C47.6456 49.948 46.0296 50.668 43.8056 50.668C41.5816 50.668 39.9576 49.948 38.9336 48.508C37.9256 47.068 37.4216 45.028 37.4216 42.388V41.356C37.4216 38.716 37.9256 36.676 38.9336 35.236C39.9576 33.796 41.5816 33.076 43.8056 33.076ZM43.8056 35.98C43.1816 35.98 42.6536 36.084 42.2216 36.292C41.8056 36.5 41.4696 36.836 41.2136 37.3C40.9736 37.748 40.7976 38.324 40.6856 39.028C40.5736 39.732 40.5176 40.58 40.5176 41.572V42.172C40.5176 43.164 40.5736 44.012 40.6856 44.716C40.7976 45.42 40.9736 46.004 41.2136 46.468C41.4696 46.916 41.8056 47.244 42.2216 47.452C42.6536 47.66 43.1816 47.764 43.8056 47.764C44.4296 47.764 44.9496 47.66 45.3656 47.452C45.7976 47.244 46.1336 46.916 46.3736 46.468C46.6296 46.004 46.8136 45.42 46.9256 44.716C47.0376 44.012 47.0936 43.164 47.0936 42.172V41.572C47.0936 40.58 47.0376 39.732 46.9256 39.028C46.8136 38.324 46.6296 37.748 46.3736 37.3C46.1336 36.836 45.7976 36.5 45.3656 36.292C44.9496 36.084 44.4296 35.98 43.8056 35.98ZM57.4884 33.076C59.7124 33.076 61.3284 33.796 62.3364 35.236C63.3604 36.676 63.8724 38.716 63.8724 41.356V42.388C63.8724 45.028 63.3604 47.068 62.3364 48.508C61.3284 49.948 59.7124 50.668 57.4884 50.668C55.2644 50.668 53.6404 49.948 52.6164 48.508C51.6084 47.068 51.1044 45.028 51.1044 42.388V41.356C51.1044 38.716 51.6084 36.676 52.6164 35.236C53.6404 33.796 55.2644 33.076 57.4884 33.076ZM57.4884 35.98C56.8644 35.98 56.3364 36.084 55.9044 36.292C55.4884 36.5 55.1524 36.836 54.8964 37.3C54.6564 37.748 54.4804 38.324 54.3684 39.028C54.2564 39.732 54.2004 40.58 54.2004 41.572V42.172C54.2004 43.164 54.2564 44.012 54.3684 44.716C54.4804 45.42 54.6564 46.004 54.8964 46.468C55.1524 46.916 55.4884 47.244 55.9044 47.452C56.3364 47.66 56.8644 47.764 57.4884 47.764C58.1124 47.764 58.6324 47.66 59.0484 47.452C59.4804 47.244 59.8164 46.916 60.0564 46.468C60.3124 46.004 60.4964 45.42 60.6084 44.716C60.7204 44.012 60.7764 43.164 60.7764 42.172V41.572C60.7764 40.58 60.7204 39.732 60.6084 39.028C60.4964 38.324 60.3124 37.748 60.0564 37.3C59.8164 36.836 59.4804 36.5 59.0484 36.292C58.6324 36.084 58.1124 35.98 57.4884 35.98ZM71.1713 33.076C73.3953 33.076 75.0113 33.796 76.0193 35.236C77.0433 36.676 77.5553 38.716 77.5553 41.356V42.388C77.5553 45.028 77.0433 47.068 76.0193 48.508C75.0113 49.948 73.3953 50.668 71.1713 50.668C68.9473 50.668 67.3233 49.948 66.2993 48.508C65.2913 47.068 64.7873 45.028 64.7873 42.388V41.356C64.7873 38.716 65.2913 36.676 66.2993 35.236C67.3233 33.796 68.9473 33.076 71.1713 33.076ZM71.1713 35.98C70.5473 35.98 70.0193 36.084 69.5873 36.292C69.1713 36.5 68.8353 36.836 68.5793 37.3C68.3393 37.748 68.1633 38.324 68.0513 39.028C67.9393 39.732 67.8833 40.58 67.8833 41.572V42.172C67.8833 43.164 67.9393 44.012 68.0513 44.716C68.1633 45.42 68.3393 46.004 68.5793 46.468C68.8353 46.916 69.1713 47.244 69.5873 47.452C70.0193 47.66 70.5473 47.764 71.1713 47.764C71.7953 47.764 72.3153 47.66 72.7313 47.452C73.1633 47.244 73.4993 46.916 73.7393 46.468C73.9953 46.004 74.1793 45.42 74.2913 44.716C74.4033 44.012 74.4593 43.164 74.4593 42.172V41.572C74.4593 40.58 74.4033 39.732 74.2913 39.028C74.1793 38.324 73.9953 37.748 73.7393 37.3C73.4993 36.836 73.1633 36.5 72.7313 36.292C72.3153 36.084 71.7953 35.98 71.1713 35.98Z"/>
</mask>
<path d="M18.072 33.196C18.536 33.196 18.92 33.3 19.224 33.508C19.528 33.716 19.68 34.052 19.68 34.516V49.228C19.68 49.692 19.528 50.028 19.224 50.236C18.92 50.444 18.56 50.548 18.144 50.548C17.728 50.548 17.368 50.444 17.064 50.236C16.76 50.028 16.608 49.692 16.608 49.228V36.796L13.512 38.572C13.112 38.796 12.736 38.844 12.384 38.716C12.032 38.572 11.76 38.324 11.568 37.972C11.392 37.652 11.336 37.308 11.4 36.94C11.464 36.572 11.68 36.284 12.048 36.076L16.104 33.82C16.52 33.596 16.88 33.436 17.184 33.34C17.488 33.244 17.784 33.196 18.072 33.196ZM30.1228 33.076C32.3468 33.076 33.9628 33.796 34.9708 35.236C35.9948 36.676 36.5068 38.716 36.5068 41.356V42.388C36.5068 45.028 35.9948 47.068 34.9708 48.508C33.9628 49.948 32.3468 50.668 30.1228 50.668C27.8988 50.668 26.2748 49.948 25.2508 48.508C24.2428 47.068 23.7388 45.028 23.7388 42.388V41.356C23.7388 38.716 24.2428 36.676 25.2508 35.236C26.2748 33.796 27.8988 33.076 30.1228 33.076ZM30.1228 35.98C29.4988 35.98 28.9708 36.084 28.5388 36.292C28.1228 36.5 27.7868 36.836 27.5308 37.3C27.2908 37.748 27.1148 38.324 27.0028 39.028C26.8908 39.732 26.8348 40.58 26.8348 41.572V42.172C26.8348 43.164 26.8908 44.012 27.0028 44.716C27.1148 45.42 27.2908 46.004 27.5308 46.468C27.7868 46.916 28.1228 47.244 28.5388 47.452C28.9708 47.66 29.4988 47.764 30.1228 47.764C30.7468 47.764 31.2668 47.66 31.6828 47.452C32.1148 47.244 32.4508 46.916 32.6908 46.468C32.9468 46.004 33.1308 45.42 33.2428 44.716C33.3548 44.012 33.4108 43.164 33.4108 42.172V41.572C33.4108 40.58 33.3548 39.732 33.2428 39.028C33.1308 38.324 32.9468 37.748 32.6908 37.3C32.4508 36.836 32.1148 36.5 31.6828 36.292C31.2668 36.084 30.7468 35.98 30.1228 35.98ZM43.8056 33.076C46.0296 33.076 47.6456 33.796 48.6536 35.236C49.6776 36.676 50.1896 38.716 50.1896 41.356V42.388C50.1896 45.028 49.6776 47.068 48.6536 48.508C47.6456 49.948 46.0296 50.668 43.8056 50.668C41.5816 50.668 39.9576 49.948 38.9336 48.508C37.9256 47.068 37.4216 45.028 37.4216 42.388V41.356C37.4216 38.716 37.9256 36.676 38.9336 35.236C39.9576 33.796 41.5816 33.076 43.8056 33.076ZM43.8056 35.98C43.1816 35.98 42.6536 36.084 42.2216 36.292C41.8056 36.5 41.4696 36.836 41.2136 37.3C40.9736 37.748 40.7976 38.324 40.6856 39.028C40.5736 39.732 40.5176 40.58 40.5176 41.572V42.172C40.5176 43.164 40.5736 44.012 40.6856 44.716C40.7976 45.42 40.9736 46.004 41.2136 46.468C41.4696 46.916 41.8056 47.244 42.2216 47.452C42.6536 47.66 43.1816 47.764 43.8056 47.764C44.4296 47.764 44.9496 47.66 45.3656 47.452C45.7976 47.244 46.1336 46.916 46.3736 46.468C46.6296 46.004 46.8136 45.42 46.9256 44.716C47.0376 44.012 47.0936 43.164 47.0936 42.172V41.572C47.0936 40.58 47.0376 39.732 46.9256 39.028C46.8136 38.324 46.6296 37.748 46.3736 37.3C46.1336 36.836 45.7976 36.5 45.3656 36.292C44.9496 36.084 44.4296 35.98 43.8056 35.98ZM57.4884 33.076C59.7124 33.076 61.3284 33.796 62.3364 35.236C63.3604 36.676 63.8724 38.716 63.8724 41.356V42.388C63.8724 45.028 63.3604 47.068 62.3364 48.508C61.3284 49.948 59.7124 50.668 57.4884 50.668C55.2644 50.668 53.6404 49.948 52.6164 48.508C51.6084 47.068 51.1044 45.028 51.1044 42.388V41.356C51.1044 38.716 51.6084 36.676 52.6164 35.236C53.6404 33.796 55.2644 33.076 57.4884 33.076ZM57.4884 35.98C56.8644 35.98 56.3364 36.084 55.9044 36.292C55.4884 36.5 55.1524 36.836 54.8964 37.3C54.6564 37.748 54.4804 38.324 54.3684 39.028C54.2564 39.732 54.2004 40.58 54.2004 41.572V42.172C54.2004 43.164 54.2564 44.012 54.3684 44.716C54.4804 45.42 54.6564 46.004 54.8964 46.468C55.1524 46.916 55.4884 47.244 55.9044 47.452C56.3364 47.66 56.8644 47.764 57.4884 47.764C58.1124 47.764 58.6324 47.66 59.0484 47.452C59.4804 47.244 59.8164 46.916 60.0564 46.468C60.3124 46.004 60.4964 45.42 60.6084 44.716C60.7204 44.012 60.7764 43.164 60.7764 42.172V41.572C60.7764 40.58 60.7204 39.732 60.6084 39.028C60.4964 38.324 60.3124 37.748 60.0564 37.3C59.8164 36.836 59.4804 36.5 59.0484 36.292C58.6324 36.084 58.1124 35.98 57.4884 35.98ZM71.1713 33.076C73.3953 33.076 75.0113 33.796 76.0193 35.236C77.0433 36.676 77.5553 38.716 77.5553 41.356V42.388C77.5553 45.028 77.0433 47.068 76.0193 48.508C75.0113 49.948 73.3953 50.668 71.1713 50.668C68.9473 50.668 67.3233 49.948 66.2993 48.508C65.2913 47.068 64.7873 45.028 64.7873 42.388V41.356C64.7873 38.716 65.2913 36.676 66.2993 35.236C67.3233 33.796 68.9473 33.076 71.1713 33.076ZM71.1713 35.98C70.5473 35.98 70.0193 36.084 69.5873 36.292C69.1713 36.5 68.8353 36.836 68.5793 37.3C68.3393 37.748 68.1633 38.324 68.0513 39.028C67.9393 39.732 67.8833 40.58 67.8833 41.572V42.172C67.8833 43.164 67.9393 44.012 68.0513 44.716C68.1633 45.42 68.3393 46.004 68.5793 46.468C68.8353 46.916 69.1713 47.244 69.5873 47.452C70.0193 47.66 70.5473 47.764 71.1713 47.764C71.7953 47.764 72.3153 47.66 72.7313 47.452C73.1633 47.244 73.4993 46.916 73.7393 46.468C73.9953 46.004 74.1793 45.42 74.2913 44.716C74.4033 44.012 74.4593 43.164 74.4593 42.172V41.572C74.4593 40.58 74.4033 39.732 74.2913 39.028C74.1793 38.324 73.9953 37.748 73.7393 37.3C73.4993 36.836 73.1633 36.5 72.7313 36.292C72.3153 36.084 71.7953 35.98 71.1713 35.98Z" fill="white"/>
<path d="M19.224 33.508L16.9653 36.8092L16.9653 36.8092L19.224 33.508ZM19.224 50.236L21.4827 53.5372H21.4827L19.224 50.236ZM17.064 50.236L19.3227 46.9348L19.3227 46.9348L17.064 50.236ZM16.608 36.796H20.608V29.89L14.6177 33.3263L16.608 36.796ZM13.512 38.572L15.4664 42.062L15.4844 42.0519L15.5023 42.0417L13.512 38.572ZM12.384 38.716L10.8695 42.4182L10.9427 42.4481L11.017 42.4752L12.384 38.716ZM11.568 37.972L15.0796 36.0566L15.0729 36.0443L11.568 37.972ZM11.4 36.94L15.3408 37.6254L15.3408 37.6254L11.4 36.94ZM12.048 36.076L10.1037 32.5803L10.0917 32.587L10.0798 32.5937L12.048 36.076ZM16.104 33.82L14.2076 30.2981L14.1835 30.3111L14.1597 30.3243L16.104 33.82ZM18.072 37.196C17.9396 37.196 17.4809 37.162 16.9653 36.8092L21.4827 30.2068C20.3591 29.438 19.1324 29.196 18.072 29.196V37.196ZM16.9653 36.8092C16.512 36.4991 16.1471 36.0632 15.9216 35.5647C15.7109 35.0991 15.68 34.7104 15.68 34.516H23.68C23.68 33.1174 23.1602 31.3545 21.4827 30.2068L16.9653 36.8092ZM15.68 34.516V49.228H23.68V34.516H15.68ZM15.68 49.228C15.68 49.0336 15.711 48.6449 15.9216 48.1793C16.1471 47.6808 16.512 47.2449 16.9653 46.9348L21.4827 53.5372C23.1602 52.3895 23.68 50.6266 23.68 49.228H15.68ZM16.9653 46.9348C17.4105 46.6301 17.862 46.548 18.144 46.548V54.548C19.258 54.548 20.4295 54.2579 21.4827 53.5372L16.9653 46.9348ZM18.144 46.548C18.426 46.548 18.8775 46.6301 19.3227 46.9348L14.8053 53.5372C15.8585 54.2579 17.03 54.548 18.144 54.548V46.548ZM19.3227 46.9348C19.776 47.2449 20.1409 47.6808 20.3664 48.1793C20.5771 48.6449 20.608 49.0336 20.608 49.228H12.608C12.608 50.6266 13.1278 52.3895 14.8053 53.5372L19.3227 46.9348ZM20.608 49.228V36.796H12.608V49.228H20.608ZM14.6177 33.3263L11.5217 35.1023L15.5023 42.0417L18.5983 40.2657L14.6177 33.3263ZM11.5576 35.082C11.7138 34.9945 12.0082 34.8612 12.4235 34.8082C12.8598 34.7525 13.3206 34.8003 13.751 34.9568L11.017 42.4752C12.704 43.0886 14.299 42.7158 15.4664 42.062L11.5576 35.082ZM13.8985 35.0138C14.1421 35.1135 14.3888 35.2636 14.611 35.4662C14.8311 35.6668 14.982 35.8776 15.0796 36.0566L8.05642 39.8874C8.66307 40.9996 9.61759 41.9061 10.8695 42.4182L13.8985 35.0138ZM15.0729 36.0443C15.1942 36.2649 15.2932 36.5316 15.342 36.8313C15.3906 37.1299 15.3797 37.4018 15.3408 37.6254L7.45915 36.2546C7.2433 37.4958 7.43852 38.764 8.06314 39.8997L15.0729 36.0443ZM15.3408 37.6254C15.2689 38.0392 15.0952 38.4677 14.81 38.848C14.5339 39.2161 14.2304 39.4372 14.0162 39.5583L10.0798 32.5937C8.82322 33.304 7.75714 34.5412 7.45915 36.2546L15.3408 37.6254ZM13.9923 39.5717L18.0483 37.3157L14.1597 30.3243L10.1037 32.5803L13.9923 39.5717ZM18.0004 37.3419C18.1364 37.2687 18.2388 37.2191 18.3106 37.1872C18.3841 37.1546 18.408 37.1482 18.3885 37.1543L15.9795 29.5257C15.3517 29.7239 14.7498 30.0062 14.2076 30.2981L18.0004 37.3419ZM18.3885 37.1543C18.3441 37.1683 18.2338 37.196 18.072 37.196V29.196C17.3342 29.196 16.6319 29.3197 15.9795 29.5257L18.3885 37.1543ZM34.9708 35.236L31.6939 37.5298L31.7024 37.542L31.711 37.5541L34.9708 35.236ZM34.9708 48.508L31.711 46.1899L31.7024 46.202L31.6939 46.2142L34.9708 48.508ZM25.2508 48.508L21.9739 50.8018L21.9824 50.814L21.991 50.8261L25.2508 48.508ZM25.2508 35.236L21.991 32.9179L21.9824 32.93L21.9739 32.9422L25.2508 35.236ZM28.5388 36.292L26.8036 32.688L26.7767 32.7009L26.75 32.7143L28.5388 36.292ZM27.5308 37.3L24.0285 35.3677L24.0166 35.3893L24.0049 35.4111L27.5308 37.3ZM27.0028 44.716L23.0525 45.3445L27.0028 44.716ZM27.5308 46.468L23.9779 48.3057L24.0164 48.38L24.0578 48.4526L27.5308 46.468ZM28.5388 47.452L26.75 51.0297L26.7767 51.0431L26.8036 51.056L28.5388 47.452ZM31.6828 47.452L29.9475 43.848L29.9207 43.8609L29.894 43.8743L31.6828 47.452ZM32.6908 46.468L29.1885 44.5357L29.1766 44.5573L29.1649 44.5791L32.6908 46.468ZM33.2428 44.716L37.1931 45.3445L33.2428 44.716ZM32.6908 37.3L29.1379 39.1377L29.1764 39.212L29.2178 39.2846L32.6908 37.3ZM31.6828 36.292L29.894 39.8697L29.9207 39.8831L29.9476 39.896L31.6828 36.292ZM30.1228 37.076C31.4289 37.076 31.632 37.4414 31.6939 37.5298L38.2477 32.9421C36.2937 30.1506 33.2647 29.076 30.1228 29.076V37.076ZM31.711 37.5541C32.069 38.0575 32.5068 39.1584 32.5068 41.356H40.5068C40.5068 38.2736 39.9207 35.2945 38.2306 32.9179L31.711 37.5541ZM32.5068 41.356V42.388H40.5068V41.356H32.5068ZM32.5068 42.388C32.5068 44.5856 32.069 45.6865 31.711 46.1899L38.2306 50.8261C39.9207 48.4495 40.5068 45.4704 40.5068 42.388H32.5068ZM31.6939 46.2142C31.632 46.3026 31.4289 46.668 30.1228 46.668V54.668C33.2647 54.668 36.2937 53.5934 38.2477 50.8018L31.6939 46.2142ZM30.1228 46.668C28.8194 46.668 28.5909 46.3028 28.5106 46.1899L21.991 50.8261C23.9587 53.5932 26.9783 54.668 30.1228 54.668V46.668ZM28.5277 46.2142C28.1725 45.7066 27.7388 44.5956 27.7388 42.388H19.7388C19.7388 45.4604 20.3131 48.4294 21.9739 50.8018L28.5277 46.2142ZM27.7388 42.388V41.356H19.7388V42.388H27.7388ZM27.7388 41.356C27.7388 39.1484 28.1725 38.0374 28.5277 37.5298L21.9739 32.9422C20.3131 35.3146 19.7388 38.2836 19.7388 41.356H27.7388ZM28.5106 37.5541C28.5909 37.4412 28.8194 37.076 30.1228 37.076V29.076C26.9783 29.076 23.9587 30.1508 21.991 32.9179L28.5106 37.5541ZM30.1228 31.98C29.0721 31.98 27.9145 32.1531 26.8036 32.688L30.2741 39.896C30.1496 39.956 30.0609 39.9769 30.0318 39.9826C30.0047 39.9879 30.0303 39.98 30.1228 39.98V31.98ZM26.75 32.7143C25.5115 33.3335 24.6194 34.2967 24.0285 35.3677L31.0331 39.2323C31.0003 39.2918 30.9294 39.4023 30.8032 39.5284C30.6739 39.6578 30.5126 39.7773 30.3277 39.8697L26.75 32.7143ZM24.0049 35.4111C23.488 36.376 23.2086 37.4181 23.0525 38.3995L30.9531 39.6565C30.9852 39.4551 31.0191 39.3192 31.0442 39.2369C31.0696 39.1537 31.0799 39.1457 31.0567 39.1889L24.0049 35.4111ZM23.0525 38.3995C22.8974 39.3742 22.8348 40.4444 22.8348 41.572H30.8348C30.8348 40.7156 30.8842 40.0898 30.9531 39.6565L23.0525 38.3995ZM22.8348 41.572V42.172H30.8348V41.572H22.8348ZM22.8348 42.172C22.8348 43.2996 22.8974 44.3698 23.0525 45.3445L30.9531 44.0875C30.8842 43.6542 30.8348 43.0284 30.8348 42.172H22.8348ZM23.0525 45.3445C23.2089 46.3274 23.4849 47.3524 23.9779 48.3057L31.0837 44.6303C31.0938 44.6499 31.0771 44.622 31.0487 44.5278C31.0204 44.434 30.9854 44.2906 30.9531 44.0875L23.0525 45.3445ZM24.0578 48.4526C24.6611 49.5083 25.5514 50.4304 26.75 51.0297L30.3277 43.8743C30.4933 43.9571 30.6438 44.0655 30.769 44.1877C30.8917 44.3076 30.9654 44.4163 31.0038 44.4834L24.0578 48.4526ZM26.8036 51.056C27.9145 51.5909 29.0721 51.764 30.1228 51.764V43.764C30.0303 43.764 30.0047 43.7561 30.0318 43.7614C30.0609 43.7671 30.1496 43.788 30.2741 43.848L26.8036 51.056ZM30.1228 51.764C31.1654 51.764 32.3438 51.5936 33.4717 51.0297L29.894 43.8743C30.0448 43.7989 30.1555 43.7718 30.1963 43.7637C30.2352 43.7559 30.2162 43.764 30.1228 43.764V51.764ZM33.4181 51.056C34.6609 50.4576 35.6021 49.5042 36.2167 48.3569L29.1649 44.5791C29.2219 44.4728 29.3174 44.3314 29.4647 44.1877C29.6137 44.0423 29.7811 43.9281 29.9475 43.848L33.4181 51.056ZM36.1931 48.4003C36.7352 47.4178 37.0319 46.358 37.1931 45.3445L29.2925 44.0875C29.2625 44.276 29.2299 44.4031 29.2057 44.48C29.1815 44.5569 29.1703 44.5687 29.1885 44.5357L36.1931 48.4003ZM37.1931 45.3445C37.3482 44.3698 37.4108 43.2996 37.4108 42.172H29.4108C29.4108 43.0284 29.3614 43.6542 29.2925 44.0875L37.1931 45.3445ZM37.4108 42.172V41.572H29.4108V42.172H37.4108ZM37.4108 41.572C37.4108 40.4444 37.3482 39.3742 37.1931 38.3995L29.2925 39.6565C29.3614 40.0898 29.4108 40.7156 29.4108 41.572H37.4108ZM37.1931 38.3995C37.0321 37.3876 36.7319 36.3096 36.1638 35.3154L29.2178 39.2846C29.1855 39.228 29.1896 39.2198 29.2105 39.2852C29.2313 39.3503 29.2628 39.4697 29.2925 39.6565L37.1931 38.3995ZM36.2437 35.4623C35.6431 34.3011 34.7023 33.3063 33.4181 32.688L29.9476 39.896C29.7619 39.8066 29.5835 39.6815 29.4304 39.5284C29.28 39.378 29.1884 39.2352 29.1379 39.1377L36.2437 35.4623ZM33.4717 32.7143C32.3438 32.1504 31.1654 31.98 30.1228 31.98V39.98C30.2162 39.98 30.2352 39.9881 30.1963 39.9803C30.1555 39.9722 30.0448 39.9451 29.894 39.8697L33.4717 32.7143ZM48.6536 35.236L45.3767 37.5298L45.3852 37.542L45.3938 37.5541L48.6536 35.236ZM48.6536 48.508L45.3938 46.1899L45.3852 46.202L45.3767 46.2142L48.6536 48.508ZM38.9336 48.508L35.6567 50.8018L35.6652 50.814L35.6738 50.8261L38.9336 48.508ZM38.9336 35.236L35.6738 32.9179L35.6652 32.93L35.6567 32.9422L38.9336 35.236ZM42.2216 36.292L40.4864 32.688L40.4595 32.7009L40.4328 32.7143L42.2216 36.292ZM41.2136 37.3L37.7113 35.3677L37.6994 35.3893L37.6877 35.4111L41.2136 37.3ZM40.6856 44.716L36.7353 45.3445L40.6856 44.716ZM41.2136 46.468L37.6608 48.3057L37.6992 48.38L37.7407 48.4526L41.2136 46.468ZM42.2216 47.452L40.4328 51.0297L40.4595 51.0431L40.4864 51.056L42.2216 47.452ZM45.3656 47.452L43.6304 43.848L43.6035 43.8609L43.5768 43.8743L45.3656 47.452ZM46.3736 46.468L42.8713 44.5357L42.8594 44.5573L42.8477 44.5791L46.3736 46.468ZM46.9256 44.716L50.8759 45.3445L46.9256 44.716ZM46.3736 37.3L42.8208 39.1377L42.8592 39.212L42.9007 39.2846L46.3736 37.3ZM45.3656 36.292L43.5768 39.8697L43.6035 39.8831L43.6304 39.896L45.3656 36.292ZM43.8056 37.076C45.1117 37.076 45.3148 37.4414 45.3767 37.5298L51.9306 32.9421C49.9765 30.1506 46.9476 29.076 43.8056 29.076V37.076ZM45.3938 37.5541C45.7518 38.0575 46.1896 39.1584 46.1896 41.356H54.1896C54.1896 38.2736 53.6035 35.2945 51.9134 32.9179L45.3938 37.5541ZM46.1896 41.356V42.388H54.1896V41.356H46.1896ZM46.1896 42.388C46.1896 44.5856 45.7518 45.6865 45.3938 46.1899L51.9134 50.8261C53.6035 48.4495 54.1896 45.4704 54.1896 42.388H46.1896ZM45.3767 46.2142C45.3148 46.3026 45.1117 46.668 43.8056 46.668V54.668C46.9476 54.668 49.9765 53.5934 51.9306 50.8018L45.3767 46.2142ZM43.8056 46.668C42.5022 46.668 42.2737 46.3028 42.1934 46.1899L35.6738 50.8261C37.6416 53.5932 40.6611 54.668 43.8056 54.668V46.668ZM42.2106 46.2142C41.8553 45.7066 41.4216 44.5956 41.4216 42.388H33.4216C33.4216 45.4604 33.996 48.4294 35.6567 50.8018L42.2106 46.2142ZM41.4216 42.388V41.356H33.4216V42.388H41.4216ZM41.4216 41.356C41.4216 39.1484 41.8553 38.0374 42.2106 37.5298L35.6567 32.9422C33.996 35.3146 33.4216 38.2836 33.4216 41.356H41.4216ZM42.1934 37.5541C42.2737 37.4412 42.5022 37.076 43.8056 37.076V29.076C40.6611 29.076 37.6416 30.1508 35.6738 32.9179L42.1934 37.5541ZM43.8056 31.98C42.7549 31.98 41.5973 32.1531 40.4864 32.688L43.9569 39.896C43.8324 39.956 43.7437 39.9769 43.7147 39.9826C43.6875 39.9879 43.7131 39.98 43.8056 39.98V31.98ZM40.4328 32.7143C39.1943 33.3335 38.3022 34.2967 37.7113 35.3677L44.7159 39.2323C44.6831 39.2918 44.6122 39.4023 44.4861 39.5284C44.3567 39.6578 44.1954 39.7773 44.0105 39.8697L40.4328 32.7143ZM37.6877 35.4111C37.1708 36.376 36.8914 37.4181 36.7353 38.3995L44.6359 39.6565C44.668 39.4551 44.7019 39.3192 44.727 39.2369C44.7524 39.1537 44.7627 39.1457 44.7395 39.1889L37.6877 35.4111ZM36.7353 38.3995C36.5802 39.3742 36.5176 40.4444 36.5176 41.572H44.5176C44.5176 40.7156 44.567 40.0898 44.6359 39.6565L36.7353 38.3995ZM36.5176 41.572V42.172H44.5176V41.572H36.5176ZM36.5176 42.172C36.5176 43.2996 36.5802 44.3698 36.7353 45.3445L44.6359 44.0875C44.567 43.6542 44.5176 43.0284 44.5176 42.172H36.5176ZM36.7353 45.3445C36.8917 46.3274 37.1677 47.3524 37.6608 48.3057L44.7665 44.6303C44.7766 44.6499 44.7599 44.622 44.7315 44.5278C44.7032 44.434 44.6683 44.2906 44.6359 44.0875L36.7353 45.3445ZM37.7407 48.4526C38.3439 49.5083 39.2342 50.4304 40.4328 51.0297L44.0105 43.8743C44.1761 43.9571 44.3266 44.0655 44.4518 44.1877C44.5746 44.3076 44.6482 44.4163 44.6866 44.4834L37.7407 48.4526ZM40.4864 51.056C41.5973 51.5909 42.7549 51.764 43.8056 51.764V43.764C43.7131 43.764 43.6875 43.7561 43.7147 43.7614C43.7437 43.7671 43.8324 43.788 43.9569 43.848L40.4864 51.056ZM43.8056 51.764C44.8482 51.764 46.0266 51.5936 47.1545 51.0297L43.5768 43.8743C43.7276 43.7989 43.8383 43.7718 43.8792 43.7637C43.918 43.7559 43.899 43.764 43.8056 43.764V51.764ZM47.1009 51.056C48.3437 50.4576 49.2849 49.5042 49.8995 48.3569L42.8477 44.5791C42.9047 44.4728 43.0002 44.3314 43.1475 44.1877C43.2965 44.0423 43.4639 43.9281 43.6304 43.848L47.1009 51.056ZM49.8759 48.4003C50.418 47.4178 50.7147 46.358 50.8759 45.3445L42.9753 44.0875C42.9453 44.276 42.9127 44.4031 42.8885 44.48C42.8643 44.5569 42.8531 44.5687 42.8713 44.5357L49.8759 48.4003ZM50.8759 45.3445C51.031 44.3698 51.0936 43.2996 51.0936 42.172H43.0936C43.0936 43.0284 43.0443 43.6542 42.9753 44.0875L50.8759 45.3445ZM51.0936 42.172V41.572H43.0936V42.172H51.0936ZM51.0936 41.572C51.0936 40.4444 51.031 39.3742 50.8759 38.3995L42.9753 39.6565C43.0443 40.0898 43.0936 40.7156 43.0936 41.572H51.0936ZM50.8759 38.3995C50.715 37.3876 50.4147 36.3096 49.8466 35.3154L42.9007 39.2846C42.8683 39.228 42.8724 39.2198 42.8933 39.2852C42.9141 39.3503 42.9456 39.4697 42.9753 39.6565L50.8759 38.3995ZM49.9265 35.4623C49.3259 34.3011 48.3851 33.3063 47.1009 32.688L43.6304 39.896C43.4447 39.8066 43.2663 39.6815 43.1132 39.5284C42.9628 39.378 42.8712 39.2352 42.8208 39.1377L49.9265 35.4623ZM47.1545 32.7143C46.0266 32.1504 44.8482 31.98 43.8056 31.98V39.98C43.899 39.98 43.918 39.9881 43.8792 39.9803C43.8383 39.9722 43.7276 39.9451 43.5768 39.8697L47.1545 32.7143ZM62.3364 35.236L59.0595 37.5298L59.068 37.542L59.0766 37.5541L62.3364 35.236ZM62.3364 48.508L59.0766 46.1899L59.068 46.202L59.0595 46.2142L62.3364 48.508ZM52.6164 48.508L49.3395 50.8018L49.348 50.814L49.3566 50.8261L52.6164 48.508ZM52.6164 35.236L49.3566 32.9179L49.348 32.93L49.3395 32.9422L52.6164 35.236ZM55.9044 36.292L54.1692 32.688L54.1423 32.7009L54.1156 32.7143L55.9044 36.292ZM54.8964 37.3L51.3941 35.3677L51.3822 35.3893L51.3705 35.4111L54.8964 37.3ZM54.3684 44.716L50.4181 45.3445L54.3684 44.716ZM54.8964 46.468L51.3436 48.3057L51.382 48.38L51.4235 48.4526L54.8964 46.468ZM55.9044 47.452L54.1156 51.0297L54.1423 51.0431L54.1692 51.056L55.9044 47.452ZM59.0484 47.452L57.3132 43.848L57.2863 43.8609L57.2596 43.8743L59.0484 47.452ZM60.0564 46.468L56.5541 44.5357L56.5422 44.5573L56.5305 44.5791L60.0564 46.468ZM60.6084 44.716L64.5588 45.3445L60.6084 44.716ZM60.0564 37.3L56.5036 39.1377L56.542 39.212L56.5835 39.2846L60.0564 37.3ZM59.0484 36.292L57.2596 39.8697L57.2863 39.8831L57.3132 39.896L59.0484 36.292ZM57.4884 37.076C58.7945 37.076 58.9976 37.4414 59.0595 37.5298L65.6134 32.9421C63.6593 30.1506 60.6304 29.076 57.4884 29.076V37.076ZM59.0766 37.5541C59.4346 38.0575 59.8724 39.1584 59.8724 41.356H67.8724C67.8724 38.2736 67.2863 35.2945 65.5963 32.9179L59.0766 37.5541ZM59.8724 41.356V42.388H67.8724V41.356H59.8724ZM59.8724 42.388C59.8724 44.5856 59.4346 45.6865 59.0766 46.1899L65.5963 50.8261C67.2863 48.4495 67.8724 45.4704 67.8724 42.388H59.8724ZM59.0595 46.2142C58.9976 46.3026 58.7945 46.668 57.4884 46.668V54.668C60.6304 54.668 63.6593 53.5934 65.6134 50.8018L59.0595 46.2142ZM57.4884 46.668C56.185 46.668 55.9565 46.3028 55.8763 46.1899L49.3566 50.8261C51.3244 53.5932 54.3439 54.668 57.4884 54.668V46.668ZM55.8934 46.2142C55.5381 45.7066 55.1044 44.5956 55.1044 42.388H47.1044C47.1044 45.4604 47.6788 48.4294 49.3395 50.8018L55.8934 46.2142ZM55.1044 42.388V41.356H47.1044V42.388H55.1044ZM55.1044 41.356C55.1044 39.1484 55.5381 38.0374 55.8934 37.5298L49.3395 32.9422C47.6788 35.3146 47.1044 38.2836 47.1044 41.356H55.1044ZM55.8763 37.5541C55.9565 37.4412 56.185 37.076 57.4884 37.076V29.076C54.3439 29.076 51.3244 30.1508 49.3566 32.9179L55.8763 37.5541ZM57.4884 31.98C56.4378 31.98 55.2801 32.1531 54.1692 32.688L57.6397 39.896C57.5152 39.956 57.4265 39.9769 57.3975 39.9826C57.3704 39.9879 57.3959 39.98 57.4884 39.98V31.98ZM54.1156 32.7143C52.8771 33.3335 51.985 34.2967 51.3941 35.3677L58.3988 39.2323C58.3659 39.2918 58.295 39.4023 58.1689 39.5284C58.0395 39.6578 57.8782 39.7773 57.6933 39.8697L54.1156 32.7143ZM51.3705 35.4111C50.8536 36.376 50.5742 37.4181 50.4181 38.3995L58.3188 39.6565C58.3508 39.4551 58.3847 39.3192 58.4098 39.2369C58.4352 39.1537 58.4455 39.1457 58.4224 39.1889L51.3705 35.4111ZM50.4181 38.3995C50.2631 39.3742 50.2004 40.4444 50.2004 41.572H58.2004C58.2004 40.7156 58.2498 40.0898 58.3188 39.6565L50.4181 38.3995ZM50.2004 41.572V42.172H58.2004V41.572H50.2004ZM50.2004 42.172C50.2004 43.2996 50.2631 44.3698 50.4181 45.3445L58.3188 44.0875C58.2498 43.6542 58.2004 43.0284 58.2004 42.172H50.2004ZM50.4181 45.3445C50.5745 46.3274 50.8505 47.3524 51.3436 48.3057L58.4493 44.6303C58.4594 44.6499 58.4427 44.622 58.4143 44.5278C58.386 44.434 58.3511 44.2906 58.3188 44.0875L50.4181 45.3445ZM51.4235 48.4526C52.0267 49.5083 52.917 50.4304 54.1156 51.0297L57.6933 43.8743C57.859 43.9571 58.0094 44.0655 58.1346 44.1877C58.2574 44.3076 58.3311 44.4163 58.3694 44.4834L51.4235 48.4526ZM54.1692 51.056C55.2801 51.5909 56.4378 51.764 57.4884 51.764V43.764C57.3959 43.764 57.3704 43.7561 57.3975 43.7614C57.4265 43.7671 57.5152 43.788 57.6397 43.848L54.1692 51.056ZM57.4884 51.764C58.531 51.764 59.7095 51.5936 60.8373 51.0297L57.2596 43.8743C57.4104 43.7989 57.5211 43.7718 57.562 43.7637C57.6008 43.7559 57.5819 43.764 57.4884 43.764V51.764ZM60.7837 51.056C62.0265 50.4576 62.9677 49.5042 63.5824 48.3569L56.5305 44.5791C56.5875 44.4728 56.6831 44.3314 56.8303 44.1877C56.9793 44.0423 57.1467 43.9281 57.3132 43.848L60.7837 51.056ZM63.5588 48.4003C64.1008 47.4178 64.3975 46.358 64.5588 45.3445L56.6581 44.0875C56.6281 44.276 56.5955 44.4031 56.5713 44.48C56.5471 44.5569 56.5359 44.5687 56.5541 44.5357L63.5588 48.4003ZM64.5588 45.3445C64.7138 44.3698 64.7764 43.2996 64.7764 42.172H56.7764C56.7764 43.0284 56.7271 43.6542 56.6581 44.0875L64.5588 45.3445ZM64.7764 42.172V41.572H56.7764V42.172H64.7764ZM64.7764 41.572C64.7764 40.4444 64.7138 39.3742 64.5588 38.3995L56.6581 39.6565C56.7271 40.0898 56.7764 40.7156 56.7764 41.572H64.7764ZM64.5588 38.3995C64.3978 37.3876 64.0975 36.3096 63.5294 35.3154L56.5835 39.2846C56.5511 39.228 56.5552 39.2198 56.5761 39.2852C56.5969 39.3503 56.6284 39.4697 56.6581 39.6565L64.5588 38.3995ZM63.6093 35.4623C63.0087 34.3011 62.068 33.3063 60.7837 32.688L57.3132 39.896C57.1275 39.8066 56.9491 39.6815 56.796 39.5284C56.6456 39.378 56.554 39.2352 56.5036 39.1377L63.6093 35.4623ZM60.8373 32.7143C59.7095 32.1504 58.531 31.98 57.4884 31.98V39.98C57.5819 39.98 57.6008 39.9881 57.562 39.9803C57.5211 39.9722 57.4104 39.9451 57.2596 39.8697L60.8373 32.7143ZM76.0192 35.236L72.7423 37.5298L72.7508 37.542L72.7594 37.5541L76.0192 35.236ZM76.0192 48.508L72.7594 46.1899L72.7508 46.202L72.7423 46.2142L76.0192 48.508ZM66.2993 48.508L63.0223 50.8018L63.0308 50.814L63.0394 50.8261L66.2993 48.508ZM66.2993 35.236L63.0394 32.9179L63.0308 32.93L63.0223 32.9422L66.2993 35.236ZM69.5872 36.292L67.852 32.688L67.8251 32.7009L67.7984 32.7143L69.5872 36.292ZM68.5793 37.3L65.0769 35.3677L65.065 35.3893L65.0533 35.4111L68.5793 37.3ZM68.0513 44.716L64.1009 45.3445L68.0513 44.716ZM68.5793 46.468L65.0264 48.3057L65.0648 48.38L65.1063 48.4526L68.5793 46.468ZM69.5872 47.452L67.7984 51.0297L67.8251 51.0431L67.852 51.056L69.5872 47.452ZM72.7313 47.452L70.996 43.848L70.9691 43.8609L70.9424 43.8743L72.7313 47.452ZM73.7393 46.468L70.2369 44.5357L70.225 44.5573L70.2133 44.5791L73.7393 46.468ZM74.2913 44.716L78.2416 45.3445L74.2913 44.716ZM73.7393 37.3L70.1864 39.1377L70.2248 39.212L70.2663 39.2846L73.7393 37.3ZM72.7313 36.292L70.9424 39.8697L70.9691 39.8831L70.996 39.896L72.7313 36.292ZM71.1712 37.076C72.4773 37.076 72.6804 37.4414 72.7423 37.5298L79.2962 32.9421C77.3421 30.1506 74.3132 29.076 71.1712 29.076V37.076ZM72.7594 37.5541C73.1174 38.0575 73.5553 39.1584 73.5553 41.356H81.5553C81.5553 38.2736 80.9691 35.2945 79.2791 32.9179L72.7594 37.5541ZM73.5553 41.356V42.388H81.5553V41.356H73.5553ZM73.5553 42.388C73.5553 44.5856 73.1174 45.6865 72.7594 46.1899L79.2791 50.8261C80.9691 48.4495 81.5553 45.4704 81.5553 42.388H73.5553ZM72.7423 46.2142C72.6804 46.3026 72.4773 46.668 71.1712 46.668V54.668C74.3132 54.668 77.3421 53.5934 79.2962 50.8018L72.7423 46.2142ZM71.1712 46.668C69.8678 46.668 69.6393 46.3028 69.5591 46.1899L63.0394 50.8261C65.0072 53.5932 68.0267 54.668 71.1712 54.668V46.668ZM69.5762 46.2142C69.2209 45.7066 68.7873 44.5956 68.7873 42.388H60.7873C60.7873 45.4604 61.3616 48.4294 63.0223 50.8018L69.5762 46.2142ZM68.7873 42.388V41.356H60.7873V42.388H68.7873ZM68.7873 41.356C68.7873 39.1484 69.2209 38.0374 69.5762 37.5298L63.0223 32.9422C61.3616 35.3146 60.7873 38.2836 60.7873 41.356H68.7873ZM69.5591 37.5541C69.6393 37.4412 69.8678 37.076 71.1712 37.076V29.076C68.0267 29.076 65.0072 30.1508 63.0394 32.9179L69.5591 37.5541ZM71.1712 31.98C70.1206 31.98 68.9629 32.1531 67.852 32.688L71.3225 39.896C71.198 39.956 71.1093 39.9769 71.0803 39.9826C71.0532 39.9879 71.0787 39.98 71.1712 39.98V31.98ZM67.7984 32.7143C66.5599 33.3335 65.6679 34.2967 65.0769 35.3677L72.0816 39.2323C72.0487 39.2918 71.9778 39.4023 71.8517 39.5284C71.7223 39.6578 71.561 39.7773 71.3761 39.8697L67.7984 32.7143ZM65.0533 35.4111C64.5364 36.376 64.2571 37.4181 64.1009 38.3995L72.0016 39.6565C72.0336 39.4551 72.0675 39.3192 72.0927 39.2369C72.1181 39.1537 72.1283 39.1457 72.1052 39.1889L65.0533 35.4111ZM64.1009 38.3995C63.9459 39.3742 63.8833 40.4444 63.8833 41.572H71.8833C71.8833 40.7156 71.9326 40.0898 72.0016 39.6565L64.1009 38.3995ZM63.8833 41.572V42.172H71.8833V41.572H63.8833ZM63.8833 42.172C63.8833 43.2996 63.9459 44.3698 64.1009 45.3445L72.0016 44.0875C71.9326 43.6542 71.8833 43.0284 71.8833 42.172H63.8833ZM64.1009 45.3445C64.2573 46.3274 64.5333 47.3524 65.0264 48.3057L72.1321 44.6303C72.1422 44.6499 72.1255 44.622 72.0971 44.5278C72.0688 44.434 72.0339 44.2906 72.0016 44.0875L64.1009 45.3445ZM65.1063 48.4526C65.7095 49.5083 66.5998 50.4304 67.7984 51.0297L71.3761 43.8743C71.5418 43.9571 71.6922 44.0655 71.8174 44.1877C71.9402 44.3076 72.0139 44.4163 72.0522 44.4834L65.1063 48.4526ZM67.852 51.056C68.9629 51.5909 70.1206 51.764 71.1712 51.764V43.764C71.0787 43.764 71.0532 43.7561 71.0803 43.7614C71.1093 43.7671 71.198 43.788 71.3225 43.848L67.852 51.056ZM71.1712 51.764C72.2138 51.764 73.3923 51.5936 74.5201 51.0297L70.9424 43.8743C71.0932 43.7989 71.204 43.7718 71.2448 43.7637C71.2836 43.7559 71.2647 43.764 71.1712 43.764V51.764ZM74.4665 51.056C75.7093 50.4576 76.6505 49.5042 77.2652 48.3569L70.2133 44.5791C70.2703 44.4728 70.3659 44.3314 70.5131 44.1877C70.6621 44.0423 70.8295 43.9281 70.996 43.848L74.4665 51.056ZM77.2416 48.4003C77.7836 47.4178 78.0803 46.358 78.2416 45.3445L70.3409 44.0875C70.3109 44.276 70.2784 44.4031 70.2541 44.48C70.2299 44.5569 70.2187 44.5687 70.2369 44.5357L77.2416 48.4003ZM78.2416 45.3445C78.3966 44.3698 78.4593 43.2996 78.4593 42.172H70.4593C70.4593 43.0284 70.4099 43.6542 70.3409 44.0875L78.2416 45.3445ZM78.4593 42.172V41.572H70.4593V42.172H78.4593ZM78.4593 41.572C78.4593 40.4444 78.3966 39.3742 78.2416 38.3995L70.3409 39.6565C70.4099 40.0898 70.4593 40.7156 70.4593 41.572H78.4593ZM78.2416 38.3995C78.0806 37.3876 77.7803 36.3096 77.2122 35.3154L70.2663 39.2846C70.234 39.228 70.2381 39.2198 70.2589 39.2852C70.2798 39.3503 70.3112 39.4697 70.3409 39.6565L78.2416 38.3995ZM77.2921 35.4623C76.6915 34.3011 75.7508 33.3063 74.4665 32.688L70.996 39.896C70.8103 39.8066 70.6319 39.6815 70.4788 39.5284C70.3284 39.378 70.2368 39.2352 70.1864 39.1377L77.2921 35.4623ZM74.5201 32.7143C73.3923 32.1504 72.2138 31.98 71.1712 31.98V39.98C71.2647 39.98 71.2836 39.9881 71.2448 39.9803C71.204 39.9722 71.0932 39.9451 70.9424 39.8697L74.5201 32.7143Z" fill="#93509F" mask="url(#path-3-outside-1_1531_1557)"/>
</g>
<defs>
<filter id="filter0_d_1531_1557" x="0.266667" y="0.0888889" width="87.4667" height="87.4667" filterUnits="userSpaceOnUse" color-interpolation-filters="sRGB">
<feFlood flood-opacity="0" result="BackgroundImageFix"/>
<feColorMatrix in="SourceAlpha" type="matrix" values="0 0 0 0 0 0 0 0 0 0 0 0 0 0 0 0 0 0 127 0" result="hardAlpha"/>
<feOffset dy="1.82222"/>
<feGaussianBlur stdDeviation="1.36667"/>
<feComposite in2="hardAlpha" operator="out"/>
<feColorMatrix type="matrix" values="0 0 0 0 0 0 0 0 0 0 0 0 0 0 0 0 0 0 0.15 0"/>
<feBlend mode="normal" in2="BackgroundImageFix" result="effect1_dropShadow_1531_1557"/>
<feBlend mode="normal" in="SourceGraphic" in2="effect1_dropShadow_1531_1557" result="shape"/>
</filter>
</defs>
</svg>


