<svg width="100" height="100" viewBox="0 0 100 100" fill="none" xmlns="http://www.w3.org/2000/svg">
<path fill-rule="evenodd" clip-rule="evenodd" d="M15.1655 39.4285C15.2966 39.9406 15.5327 40.4226 15.86 40.8465C16.6833 41.9455 17.6511 42.9896 18.7493 43.9727L14.0816 48.8905C13.3398 49.6717 12.9525 50.7031 13.0047 51.7578C13.0569 52.8125 13.5444 53.8041 14.3601 54.5146C15.1757 55.225 16.2526 55.596 17.3539 55.546C18.4552 55.496 19.4906 55.0291 20.2324 54.2479L25.6468 48.5433C27.5352 49.4791 29.5736 50.2944 31.7296 50.9802L29.7494 58.5625C29.6124 59.0709 29.5818 59.6002 29.6593 60.12C29.7368 60.6399 29.921 61.1398 30.2011 61.5912C30.4813 62.0425 30.8519 62.4363 31.2917 62.7499C31.7315 63.0634 32.2317 63.2905 32.7635 63.4181C33.2953 63.5457 33.8483 63.5713 34.3905 63.4933C34.9326 63.4154 35.4534 63.2354 35.9226 62.9639C36.3919 62.6924 36.8004 62.3346 37.1246 61.9112C37.4489 61.4878 37.6824 61.0071 37.8119 60.4969L39.807 52.8537C41.9003 53.176 44.0547 53.3907 46.2484 53.492V61.5198C46.2484 62.5754 46.6862 63.5878 47.4656 64.3342C48.245 65.0806 49.3021 65.5 50.4043 65.5C51.5065 65.5 52.5636 65.0806 53.3429 64.3342C54.1223 63.5878 54.5602 62.5754 54.5602 61.5198V53.3297C56.0341 53.203 57.4859 53.0246 58.9086 52.7964L60.9187 60.4969C61.0481 61.0071 61.2817 61.4878 61.606 61.9112C61.9302 62.3346 62.3387 62.6924 62.808 62.9639C63.2772 63.2354 63.7979 63.4154 64.3401 63.4933C64.8823 63.5713 65.4352 63.5457 65.9671 63.4181C66.4989 63.2905 66.9991 63.0634 67.4389 62.7499C67.8786 62.4363 68.2493 62.0425 68.5295 61.5912C68.8096 61.1398 68.9938 60.6399 69.0713 60.12C69.1488 59.6002 69.1182 59.0709 68.9812 58.5625L66.9715 50.8675C69.2868 50.1115 71.4626 49.205 73.4583 48.1593L79.9569 54.3832C80.7407 55.1083 81.7905 55.5094 82.8802 55.5004C83.9699 55.4913 85.0122 55.0727 85.7828 54.3347C86.5533 53.5968 86.9904 52.5985 86.9998 51.5549C87.0093 50.5113 86.5904 49.5059 85.8334 48.7552L80.2309 43.3896C81.0731 42.5796 81.8291 41.7308 82.4916 40.8465C82.8189 40.4226 83.055 39.9406 83.1861 39.4285C83.3173 38.9165 83.3409 38.3846 83.2557 37.8637C83.1704 37.3428 82.9779 36.8434 82.6894 36.3943C82.4009 35.9453 82.0222 35.5557 81.5751 35.248C81.1281 34.9403 80.6217 34.7208 80.0853 34.6021C79.5489 34.4835 78.9932 34.468 78.4506 34.5568C77.9079 34.6455 77.3891 34.8366 76.9242 35.1189C76.4593 35.4013 76.0576 35.7693 75.7425 36.2016C74.4791 37.8852 72.5299 39.4932 70.0073 40.8863C64.6337 43.8595 57.1863 45.5989 49.1737 45.5989C41.1653 45.5989 33.7179 43.8555 28.3443 40.8863C25.8217 39.4932 23.8726 37.8852 22.6092 36.2016C22.294 35.7693 21.8923 35.4013 21.4274 35.1189C20.9625 34.8366 20.4437 34.6455 19.901 34.5568C19.3584 34.468 18.8027 34.4835 18.2664 34.6021C17.73 34.7208 17.2236 34.9403 16.7765 35.248C16.3295 35.5557 15.9507 35.9453 15.6622 36.3943C15.3737 36.8434 15.1812 37.3428 15.096 37.8637C15.0107 38.3846 15.0343 38.9165 15.1655 39.4285Z" fill="#460096"/>
</svg>