<svg width="451" height="33" viewBox="0 0 451 33" fill="none" xmlns="http://www.w3.org/2000/svg">
<path d="M8.34807 2.35C8.8014 2.35 9.19807 2.46333 9.53807 2.69C9.87807 2.91667 10.0481 3.27933 10.0481 3.778V8.844C10.0481 9.56933 10.0821 10.2153 10.1501 10.782C10.2181 11.3487 10.3314 11.8927 10.4901 12.414C10.6714 12.9127 10.8867 13.4 11.1361 13.876C11.4081 14.3293 11.7481 14.794 12.1561 15.27C12.7454 15.9953 13.3234 16.6753 13.8901 17.31C14.4794 17.9447 15.0007 18.5113 15.4541 19.01C15.7487 19.3273 15.8621 19.7013 15.7941 20.132C15.7487 20.54 15.5787 20.88 15.2841 21.152C14.9894 21.4013 14.6381 21.5373 14.2301 21.56C13.8221 21.5827 13.4594 21.4353 13.1421 21.118C12.8247 20.7553 12.4167 20.302 11.9181 19.758C11.4194 19.214 10.9207 18.636 10.4221 18.024C10.0367 17.5707 9.7194 17.174 9.47007 16.834C9.22074 16.494 9.01674 16.1993 8.85807 15.95C8.72207 15.678 8.60874 15.44 8.51807 15.236C8.45007 15.032 8.40474 14.8393 8.38207 14.658H8.34807C8.28007 15.0433 8.11007 15.4967 7.83807 16.018C7.56607 16.5167 7.04474 17.2307 6.27407 18.16C5.7754 18.7493 5.25407 19.35 4.71007 19.962C4.16607 20.5513 3.6334 21.1293 3.11207 21.696C2.79474 22.0133 2.42074 22.1607 1.99007 22.138C1.5594 22.0927 1.2194 21.9453 0.97007 21.696C0.652737 21.3787 0.46007 21.016 0.39207 20.608C0.346737 20.1773 0.482737 19.8033 0.80007 19.486C1.4574 18.7833 2.09207 18.092 2.70407 17.412C3.33874 16.7093 3.95074 15.9953 4.54007 15.27C4.94807 14.794 5.27674 14.3293 5.52607 13.876C5.79807 13.4 6.0134 12.9127 6.17207 12.414C6.3534 11.8927 6.47807 11.3487 6.54607 10.782C6.61407 10.2153 6.64807 9.56933 6.64807 8.844L6.64807 3.778C6.64807 3.27933 6.81807 2.91667 7.15807 2.69C7.49807 2.46333 7.89474 2.35 8.34807 2.35ZM25.5861 0.547998C25.9941 0.547998 26.3567 0.661332 26.6741 0.888C27.0141 1.092 27.1841 1.42066 27.1841 1.874L27.1841 28.598C27.1841 29.0513 27.0141 29.38 26.6741 29.584C26.3567 29.8107 25.9941 29.924 25.5861 29.924C25.2007 29.924 24.8381 29.8107 24.4981 29.584C24.1807 29.38 24.0221 29.0513 24.0221 28.598V13.876H20.3841V27.17C20.3841 27.6233 20.2141 27.952 19.8741 28.156C19.5567 28.3827 19.1941 28.496 18.7861 28.496C18.4007 28.496 18.0381 28.3827 17.6981 28.156C17.3807 27.952 17.2221 27.6233 17.2221 27.17L17.2221 2.214C17.2221 1.76067 17.3807 1.432 17.6981 1.228C18.0381 1.00133 18.4007 0.888 18.7861 0.888C19.1941 0.888 19.5567 1.00133 19.8741 1.228C20.2141 1.432 20.3841 1.76067 20.3841 2.214L20.3841 10.986H24.0221L24.0221 1.874C24.0221 1.42066 24.1807 1.092 24.4981 0.888C24.8381 0.661332 25.2007 0.547998 25.5861 0.547998ZM53.4374 2.316C54.4347 2.316 55.1147 2.49733 55.4774 2.86C55.8627 3.22267 56.0554 3.89133 56.0554 4.866V9.388C56.0554 10.34 55.8627 10.9973 55.4774 11.36C55.1147 11.7227 54.4347 11.904 53.4374 11.904L39.5314 11.904C39.0554 11.904 38.8174 12.142 38.8174 12.618V15.168C38.8174 15.6213 39.0554 15.848 39.5314 15.848L55.6134 15.848C56.0214 15.848 56.3161 15.9953 56.4974 16.29C56.7014 16.5847 56.8034 16.9247 56.8034 17.31C56.8034 17.6953 56.7014 18.0353 56.4974 18.33C56.3161 18.602 56.0214 18.738 55.6134 18.738L38.1034 18.738C37.106 18.738 36.4147 18.5567 36.0294 18.194C35.6667 17.8313 35.4854 17.1627 35.4854 16.188V11.666C35.4854 10.6913 35.6667 10.034 36.0294 9.694C36.4147 9.33133 37.106 9.15 38.1034 9.15L52.0094 9.15C52.4854 9.15 52.7234 8.912 52.7234 8.436V5.92C52.7234 5.444 52.4854 5.206 52.0094 5.206L36.6074 5.206C36.1994 5.206 35.8934 5.07 35.6894 4.798C35.508 4.50333 35.4174 4.16333 35.4174 3.778C35.4174 3.39267 35.508 3.05266 35.6894 2.758C35.8934 2.46333 36.1994 2.316 36.6074 2.316L53.4374 2.316ZM47.4874 24.076H58.8774C59.2854 24.076 59.5801 24.2233 59.7614 24.518C59.9654 24.79 60.0674 25.1187 60.0674 25.504C60.0674 25.8893 59.9654 26.2293 59.7614 26.524C59.5801 26.8187 59.2854 26.966 58.8774 26.966H32.6974C32.2894 26.966 31.9834 26.8187 31.7794 26.524C31.598 26.2293 31.5074 25.8893 31.5074 25.504C31.5074 25.1187 31.598 24.79 31.7794 24.518C31.9834 24.2233 32.2894 24.076 32.6974 24.076H44.0874L44.0874 17.276H47.4874L47.4874 24.076ZM76.7327 1.33C80.0194 1.33 82.558 1.84 84.3487 2.86C86.162 3.88 87.0687 5.43267 87.0687 7.518C87.0687 9.60333 86.162 11.156 84.3487 12.176C82.558 13.196 80.0194 13.706 76.7327 13.706C73.446 13.706 70.896 13.196 69.0827 12.176C67.292 11.156 66.3967 9.60333 66.3967 7.518C66.3967 5.43267 67.292 3.88 69.0827 2.86C70.896 1.84 73.446 1.33 76.7327 1.33ZM76.7327 4.118C74.2847 4.118 72.5054 4.424 71.3947 5.036C70.3067 5.62533 69.7627 6.45267 69.7627 7.518C69.7627 8.58333 70.3067 9.422 71.3947 10.034C72.5054 10.6233 74.2847 10.918 76.7327 10.918C79.1807 10.918 80.9487 10.6233 82.0367 10.034C83.1474 9.422 83.7027 8.58333 83.7027 7.518C83.7027 6.45267 83.1474 5.62533 82.0367 5.036C80.9487 4.424 79.1807 4.118 76.7327 4.118ZM89.8227 16.358C90.2307 16.358 90.5254 16.5053 90.7067 16.8C90.9107 17.072 91.0127 17.4007 91.0127 17.786C91.0127 18.1713 90.9107 18.5113 90.7067 18.806C90.5254 19.078 90.2307 19.214 89.8227 19.214H78.8067V23.974C78.8067 24.4273 78.6367 24.756 78.2967 24.96C77.9794 25.164 77.5827 25.266 77.1067 25.266C76.6534 25.266 76.2567 25.164 75.9167 24.96C75.5994 24.756 75.4407 24.4273 75.4407 23.974V19.214L63.6427 19.214C63.2347 19.214 62.9287 19.078 62.7247 18.806C62.5434 18.5113 62.4527 18.1713 62.4527 17.786C62.4527 17.4007 62.5434 17.072 62.7247 16.8C62.9287 16.5053 63.2347 16.358 63.6427 16.358L89.8227 16.358ZM68.0287 21.968C68.482 21.968 68.8787 22.0813 69.2187 22.308C69.5587 22.5347 69.7287 22.8973 69.7287 23.396V28.02C69.7287 28.496 69.9667 28.734 70.4427 28.734L86.5247 28.734C86.9327 28.734 87.2274 28.87 87.4087 29.142C87.6127 29.4367 87.7147 29.7767 87.7147 30.162C87.7147 30.5473 87.6127 30.8873 87.4087 31.182C87.2274 31.4767 86.9327 31.624 86.5247 31.624L68.9127 31.624C67.9154 31.624 67.2354 31.4427 66.8727 31.08C66.51 30.7173 66.3287 30.0487 66.3287 29.074V23.396C66.3287 22.8973 66.4987 22.5347 66.8387 22.308C67.1787 22.0813 67.5754 21.968 68.0287 21.968ZM116.178 1.33C116.631 1.33 117.028 1.44333 117.368 1.67C117.731 1.89667 117.912 2.27067 117.912 2.792V4.492C117.912 5.58 118.184 6.50933 118.728 7.28C119.272 8.05067 120.088 8.73067 121.176 9.32C122.332 9.932 123.42 10.4873 124.44 10.986C125.46 11.4847 126.446 11.9607 127.398 12.414C127.783 12.5953 127.999 12.9013 128.044 13.332C128.112 13.74 128.067 14.1027 127.908 14.42C127.727 14.7827 127.455 15.0433 127.092 15.202C126.752 15.3607 126.378 15.3493 125.97 15.168C123.771 14.148 121.675 13.1167 119.68 12.074C118.501 11.4393 117.651 10.85 117.13 10.306C116.609 9.762 116.303 9.286 116.212 8.878H116.178C116.065 9.33133 115.747 9.83 115.226 10.374C114.705 10.918 113.855 11.5073 112.676 12.142C110.681 13.1847 108.585 14.216 106.386 15.236C106.001 15.4173 105.627 15.4287 105.264 15.27C104.901 15.1113 104.629 14.8393 104.448 14.454C104.267 14.114 104.21 13.74 104.278 13.332C104.346 12.9013 104.573 12.5953 104.958 12.414C105.91 11.9607 106.896 11.4847 107.916 10.986C108.936 10.4873 110.024 9.932 111.18 9.32C112.268 8.73067 113.084 8.05067 113.628 7.28C114.172 6.50933 114.444 5.58 114.444 4.492V2.792C114.444 2.27067 114.614 1.89667 114.954 1.67C115.317 1.44333 115.725 1.33 116.178 1.33ZM129.268 18.432C129.676 18.432 129.971 18.5793 130.152 18.874C130.356 19.1687 130.458 19.5087 130.458 19.894C130.458 20.2793 130.356 20.6193 130.152 20.914C129.971 21.186 129.676 21.322 129.268 21.322H117.878V30.876C117.878 31.3747 117.708 31.7373 117.368 31.964C117.028 32.1907 116.631 32.304 116.178 32.304C115.725 32.304 115.328 32.1907 114.988 31.964C114.648 31.7373 114.478 31.3747 114.478 30.876V21.322H103.088C102.68 21.322 102.374 21.186 102.17 20.914C101.989 20.6193 101.898 20.2793 101.898 19.894C101.898 19.5087 101.989 19.1687 102.17 18.874C102.374 18.5793 102.68 18.432 103.088 18.432H129.268ZM154.229 2.826C155.227 2.826 155.907 3.00733 156.269 3.37C156.655 3.73267 156.847 4.40133 156.847 5.376V9.66C156.847 10.68 156.779 11.598 156.643 12.414C156.53 13.2073 156.315 13.9553 155.997 14.658C155.68 15.338 155.238 16.0067 154.671 16.664C154.105 17.2987 153.368 17.9673 152.461 18.67C151.577 19.35 150.501 20.0867 149.231 20.88C147.962 21.6733 146.477 22.5687 144.777 23.566C144.415 23.77 144.041 23.8153 143.655 23.702C143.27 23.5887 142.964 23.3507 142.737 22.988C142.511 22.648 142.42 22.2627 142.465 21.832C142.511 21.4013 142.726 21.0727 143.111 20.846C144.879 19.826 146.364 18.9533 147.565 18.228C148.767 17.48 149.753 16.8113 150.523 16.222C151.317 15.6327 151.917 15.0773 152.325 14.556C152.756 14.0347 153.062 13.4793 153.243 12.89L143.281 13.468C142.873 13.5133 142.567 13.4 142.363 13.128C142.159 12.8333 142.035 12.482 141.989 12.074C141.967 11.7113 142.035 11.3713 142.193 11.054C142.375 10.7367 142.681 10.5667 143.111 10.544L153.549 10.068V6.464C153.549 6.192 153.493 6.01067 153.379 5.92C153.266 5.80667 153.085 5.75 152.835 5.75L144.029 5.75C143.599 5.75 143.281 5.60267 143.077 5.308C142.896 5.01333 142.805 4.67333 142.805 4.288C142.805 3.90266 142.896 3.56267 143.077 3.268C143.281 2.97333 143.599 2.826 144.029 2.826L154.229 2.826ZM163.817 0.547998C164.271 0.547998 164.667 0.661332 165.007 0.888C165.347 1.11467 165.517 1.47733 165.517 1.976V10.816H169.257C169.711 10.816 170.028 10.9633 170.209 11.258C170.413 11.53 170.515 11.87 170.515 12.278C170.515 12.686 170.413 13.0373 170.209 13.332C170.028 13.6267 169.711 13.774 169.257 13.774H165.517V28.496C165.517 28.9947 165.347 29.3573 165.007 29.584C164.667 29.8107 164.271 29.924 163.817 29.924C163.364 29.924 162.967 29.8107 162.627 29.584C162.287 29.3573 162.117 28.9947 162.117 28.496V1.976C162.117 1.47733 162.287 1.11467 162.627 0.888C162.967 0.661332 163.364 0.547998 163.817 0.547998ZM195.681 2.588C196.089 2.588 196.383 2.73533 196.565 3.03C196.769 3.32467 196.871 3.66467 196.871 4.05C196.871 4.43533 196.769 4.77533 196.565 5.07C196.383 5.36467 196.089 5.512 195.681 5.512L180.279 5.512C179.803 5.512 179.565 5.73867 179.565 6.192V14.012C179.565 14.488 179.803 14.726 180.279 14.726L196.021 14.726C196.429 14.726 196.723 14.8733 196.905 15.168C197.109 15.44 197.211 15.7687 197.211 16.154C197.211 16.5393 197.109 16.8793 196.905 17.174C196.723 17.4687 196.429 17.616 196.021 17.616L178.749 17.616C177.751 17.616 177.071 17.4347 176.709 17.072C176.346 16.7093 176.165 16.0407 176.165 15.066V5.138C176.165 4.16333 176.346 3.49467 176.709 3.132C177.071 2.76933 177.751 2.588 178.749 2.588L195.681 2.588ZM199.659 24.042C200.067 24.042 200.361 24.1893 200.543 24.484C200.747 24.756 200.849 25.096 200.849 25.504C200.849 25.8893 200.747 26.2293 200.543 26.524C200.361 26.8187 200.067 26.966 199.659 26.966H173.479C173.071 26.966 172.765 26.8187 172.561 26.524C172.379 26.2293 172.289 25.8893 172.289 25.504C172.289 25.096 172.379 24.756 172.561 24.484C172.765 24.1893 173.071 24.042 173.479 24.042H199.659ZM225.096 1.126C226.093 1.126 226.773 1.30733 227.136 1.67C227.521 2.03267 227.714 2.70133 227.714 3.676V5.852C227.714 6.804 227.521 7.46133 227.136 7.824C226.773 8.18667 226.093 8.368 225.096 8.368L211.088 8.368C210.725 8.368 210.544 8.54933 210.544 8.912V10.034C210.544 10.374 210.725 10.544 211.088 10.544L227.374 10.544C227.759 10.544 228.031 10.68 228.19 10.952C228.371 11.2013 228.462 11.496 228.462 11.836C228.462 12.176 228.371 12.482 228.19 12.754C228.031 13.0033 227.759 13.128 227.374 13.128L209.898 13.128C208.901 13.128 208.209 12.958 207.824 12.618C207.461 12.2553 207.28 11.5867 207.28 10.612V8.436C207.28 7.46133 207.461 6.79267 207.824 6.43C208.209 6.06733 208.901 5.886 209.898 5.886L223.906 5.886C224.269 5.886 224.45 5.70467 224.45 5.342V4.254C224.45 3.914 224.269 3.744 223.906 3.744L208.3 3.744C207.915 3.744 207.631 3.61933 207.45 3.37C207.291 3.098 207.212 2.792 207.212 2.452C207.212 2.112 207.291 1.806 207.45 1.534C207.631 1.262 207.915 1.126 208.3 1.126L225.096 1.126ZM230.638 15.236C231.023 15.236 231.307 15.372 231.488 15.644C231.692 15.8933 231.794 16.2107 231.794 16.596C231.794 16.9813 231.692 17.2987 231.488 17.548C231.307 17.7973 231.023 17.922 230.638 17.922L204.39 17.922C204.005 17.922 203.71 17.7973 203.506 17.548C203.325 17.2987 203.234 16.9813 203.234 16.596C203.234 16.2107 203.325 15.8933 203.506 15.644C203.71 15.372 204.005 15.236 204.39 15.236L230.638 15.236ZM225.3 20.03C226.297 20.03 226.977 20.2113 227.34 20.574C227.725 20.9367 227.918 21.6053 227.918 22.58V24.722C227.918 25.6967 227.725 26.3653 227.34 26.728C226.977 27.0907 226.297 27.272 225.3 27.272H210.884C210.521 27.272 210.34 27.442 210.34 27.782V28.904C210.34 29.244 210.521 29.414 210.884 29.414H227.544C227.929 29.414 228.213 29.55 228.394 29.822C228.575 30.094 228.666 30.3887 228.666 30.706C228.666 31.0687 228.575 31.3747 228.394 31.624C228.213 31.896 227.929 32.032 227.544 32.032H209.694C208.697 32.032 208.005 31.8507 207.62 31.488C207.257 31.1253 207.076 30.4567 207.076 29.482V27.306C207.076 26.3313 207.257 25.6627 207.62 25.3C208.005 24.9373 208.697 24.756 209.694 24.756H224.11C224.45 24.756 224.62 24.586 224.62 24.246V23.158C224.62 22.7953 224.45 22.614 224.11 22.614H208.096C207.711 22.614 207.427 22.4893 207.246 22.24C207.087 21.968 207.008 21.662 207.008 21.322C207.008 20.982 207.087 20.6873 207.246 20.438C207.427 20.166 207.711 20.03 208.096 20.03L225.3 20.03ZM255.769 2.486C256.767 2.486 257.447 2.66733 257.809 3.03C258.195 3.39267 258.387 4.06133 258.387 5.036V14.896C258.387 15.8707 258.195 16.5393 257.809 16.902C257.447 17.2647 256.767 17.446 255.769 17.446H246.419C245.422 17.446 244.731 17.2647 244.345 16.902C243.983 16.5393 243.801 15.8707 243.801 14.896V5.036C243.801 4.06133 243.983 3.39267 244.345 3.03C244.731 2.66733 245.422 2.486 246.419 2.486L255.769 2.486ZM247.881 5.376C247.609 5.376 247.417 5.43267 247.303 5.546C247.213 5.63667 247.167 5.818 247.167 6.09V13.876C247.167 14.1253 247.213 14.3067 247.303 14.42C247.417 14.5333 247.609 14.59 247.881 14.59H254.307C254.783 14.59 255.021 14.352 255.021 13.876V6.09C255.021 5.818 254.965 5.63667 254.851 5.546C254.738 5.43267 254.557 5.376 254.307 5.376L247.881 5.376ZM265.153 0.547998C265.607 0.547998 266.003 0.661332 266.343 0.888C266.683 1.11467 266.853 1.47733 266.853 1.976V9.252H270.593C271.047 9.252 271.364 9.39933 271.545 9.694C271.749 9.98867 271.851 10.3287 271.851 10.714C271.851 11.1447 271.749 11.5073 271.545 11.802C271.364 12.074 271.047 12.21 270.593 12.21H266.853V22.104C266.853 22.6027 266.683 22.9653 266.343 23.192C266.003 23.4187 265.607 23.532 265.153 23.532C264.7 23.532 264.303 23.4187 263.963 23.192C263.623 22.9653 263.453 22.6027 263.453 22.104V1.976C263.453 1.47733 263.623 1.11467 263.963 0.888C264.303 0.661332 264.7 0.547998 265.153 0.547998ZM249.071 20.676C249.502 20.676 249.887 20.7893 250.227 21.016C250.59 21.2427 250.771 21.6053 250.771 22.104V27.85C250.771 28.0993 250.817 28.2693 250.907 28.36C251.021 28.4733 251.213 28.53 251.485 28.53L266.445 28.53C266.876 28.53 267.182 28.6773 267.363 28.972C267.567 29.2667 267.669 29.618 267.669 30.026C267.669 30.4113 267.567 30.7513 267.363 31.046C267.182 31.3407 266.876 31.488 266.445 31.488L249.955 31.488C248.958 31.488 248.267 31.3067 247.881 30.944C247.519 30.5813 247.337 29.9127 247.337 28.938V22.104C247.337 21.6053 247.507 21.2427 247.847 21.016C248.21 20.7893 248.618 20.676 249.071 20.676ZM297.017 1.262C297.402 1.262 297.685 1.398 297.867 1.67C298.048 1.942 298.139 2.27067 298.139 2.656C298.139 3.04133 298.048 3.37 297.867 3.642C297.685 3.914 297.402 4.05 297.017 4.05L281.683 4.05C281.433 4.05 281.252 4.10667 281.139 4.22C281.025 4.31067 280.969 4.492 280.969 4.764V7.858C280.969 8.13 281.025 8.32267 281.139 8.436C281.252 8.52667 281.433 8.572 281.683 8.572H297.357C297.742 8.572 298.025 8.708 298.207 8.98C298.388 9.22933 298.479 9.54667 298.479 9.932C298.479 10.3173 298.388 10.6573 298.207 10.952C298.025 11.224 297.742 11.36 297.357 11.36H280.153C279.155 11.36 278.475 11.1787 278.113 10.816C277.75 10.4533 277.569 9.78467 277.569 8.81V3.812C277.569 2.83733 277.75 2.16867 278.113 1.806C278.475 1.44333 279.155 1.262 280.153 1.262L297.017 1.262ZM301.029 13.944C301.414 13.944 301.697 14.08 301.879 14.352C302.083 14.6013 302.185 14.9187 302.185 15.304C302.185 15.712 302.083 16.052 301.879 16.324C301.697 16.596 301.414 16.732 301.029 16.732H274.781C274.395 16.732 274.101 16.596 273.897 16.324C273.715 16.052 273.625 15.712 273.625 15.304C273.625 14.9187 273.715 14.6013 273.897 14.352C274.101 14.08 274.395 13.944 274.781 13.944H301.029ZM295.691 19.35C296.688 19.35 297.368 19.5313 297.731 19.894C298.116 20.2567 298.309 20.9253 298.309 21.9V24.416C298.309 25.3907 298.116 26.0593 297.731 26.422C297.368 26.7847 296.688 26.966 295.691 26.966H281.309C280.946 26.966 280.765 27.136 280.765 27.476V28.87C280.765 29.21 280.946 29.38 281.309 29.38H297.935C298.32 29.38 298.603 29.516 298.785 29.788C298.966 30.06 299.057 30.366 299.057 30.706C299.057 31.0687 298.966 31.3747 298.785 31.624C298.603 31.896 298.32 32.032 297.935 32.032H280.085C279.087 32.032 278.396 31.8507 278.011 31.488C277.648 31.1253 277.467 30.4567 277.467 29.482V26.966C277.467 25.9913 277.648 25.3227 278.011 24.96C278.396 24.5973 279.087 24.416 280.085 24.416H294.467C294.829 24.416 295.011 24.246 295.011 23.906V22.546C295.011 22.1833 294.829 22.002 294.467 22.002H278.487C278.101 22.002 277.818 21.8773 277.637 21.628C277.478 21.356 277.399 21.0387 277.399 20.676C277.399 20.336 277.478 20.03 277.637 19.758C277.818 19.486 278.101 19.35 278.487 19.35H295.691ZM327.35 1.33C327.803 1.33 328.2 1.44333 328.54 1.67C328.903 1.89667 329.084 2.27067 329.084 2.792V4.492C329.084 5.58 329.356 6.50933 329.9 7.28C330.444 8.05067 331.26 8.73067 332.348 9.32C333.504 9.932 334.592 10.4873 335.612 10.986C336.632 11.4847 337.618 11.9607 338.57 12.414C338.955 12.5953 339.171 12.9013 339.216 13.332C339.284 13.74 339.239 14.1027 339.08 14.42C338.899 14.7827 338.627 15.0433 338.264 15.202C337.924 15.3607 337.55 15.3493 337.142 15.168C334.943 14.148 332.847 13.1167 330.852 12.074C329.673 11.4393 328.823 10.85 328.302 10.306C327.781 9.762 327.475 9.286 327.384 8.878H327.35C327.237 9.33133 326.919 9.83 326.398 10.374C325.877 10.918 325.027 11.5073 323.848 12.142C321.853 13.1847 319.757 14.216 317.558 15.236C317.173 15.4173 316.799 15.4287 316.436 15.27C316.073 15.1113 315.801 14.8393 315.62 14.454C315.439 14.114 315.382 13.74 315.45 13.332C315.518 12.9013 315.745 12.5953 316.13 12.414C317.082 11.9607 318.068 11.4847 319.088 10.986C320.108 10.4873 321.196 9.932 322.352 9.32C323.44 8.73067 324.256 8.05067 324.8 7.28C325.344 6.50933 325.616 5.58 325.616 4.492V2.792C325.616 2.27067 325.786 1.89667 326.126 1.67C326.489 1.44333 326.897 1.33 327.35 1.33ZM340.44 18.432C340.848 18.432 341.143 18.5793 341.324 18.874C341.528 19.1687 341.63 19.5087 341.63 19.894C341.63 20.2793 341.528 20.6193 341.324 20.914C341.143 21.186 340.848 21.322 340.44 21.322L329.05 21.322V30.876C329.05 31.3747 328.88 31.7373 328.54 31.964C328.2 32.1907 327.803 32.304 327.35 32.304C326.897 32.304 326.5 32.1907 326.16 31.964C325.82 31.7373 325.65 31.3747 325.65 30.876V21.322H314.26C313.852 21.322 313.546 21.186 313.342 20.914C313.161 20.6193 313.07 20.2793 313.07 19.894C313.07 19.5087 313.161 19.1687 313.342 18.874C313.546 18.5793 313.852 18.432 314.26 18.432L340.44 18.432ZM361.627 1.806C362.942 1.806 364.098 1.99866 365.095 2.384C366.093 2.74667 366.92 3.25667 367.577 3.914C368.235 4.57133 368.722 5.35333 369.039 6.26C369.379 7.16667 369.549 8.14133 369.549 9.184C369.549 10.2493 369.379 11.2353 369.039 12.142C368.722 13.0487 368.235 13.8307 367.577 14.488C366.92 15.1453 366.093 15.6667 365.095 16.052C364.098 16.4147 362.942 16.596 361.627 16.596C360.29 16.596 359.123 16.4147 358.125 16.052C357.151 15.6667 356.335 15.1453 355.677 14.488C355.02 13.8307 354.521 13.0487 354.181 12.142C353.864 11.2353 353.705 10.2493 353.705 9.184C353.705 8.14133 353.864 7.16667 354.181 6.26C354.521 5.35333 355.02 4.57133 355.677 3.914C356.335 3.25667 357.151 2.74667 358.125 2.384C359.123 1.99866 360.29 1.806 361.627 1.806ZM361.627 4.628C360.789 4.628 360.075 4.75267 359.485 5.002C358.896 5.22867 358.409 5.55733 358.023 5.988C357.661 6.396 357.389 6.88333 357.207 7.45C357.049 7.994 356.969 8.572 356.969 9.184C356.969 9.796 357.049 10.3853 357.207 10.952C357.389 11.496 357.661 11.9833 358.023 12.414C358.409 12.822 358.896 13.1507 359.485 13.4C360.075 13.6267 360.789 13.74 361.627 13.74C362.466 13.74 363.18 13.6267 363.769 13.4C364.359 13.1507 364.835 12.822 365.197 12.414C365.583 11.9833 365.855 11.496 366.013 10.952C366.195 10.3853 366.285 9.796 366.285 9.184C366.285 8.572 366.195 7.994 366.013 7.45C365.855 6.88333 365.583 6.396 365.197 5.988C364.835 5.55733 364.359 5.22867 363.769 5.002C363.18 4.75267 362.466 4.628 361.627 4.628ZM376.451 0.547998C376.905 0.547998 377.301 0.661332 377.641 0.888C377.981 1.11467 378.151 1.47733 378.151 1.976V16.834C378.151 17.3327 377.981 17.6953 377.641 17.922C377.301 18.1487 376.905 18.262 376.451 18.262C375.998 18.262 375.601 18.1487 375.261 17.922C374.921 17.6953 374.751 17.3327 374.751 16.834V1.976C374.751 1.47733 374.921 1.11467 375.261 0.888C375.601 0.661332 375.998 0.547998 376.451 0.547998ZM362.647 19.078C363.101 19.078 363.486 19.1913 363.803 19.418C364.143 19.6447 364.313 19.996 364.313 20.472V22.104C364.313 22.6027 364.336 23.0333 364.381 23.396C364.427 23.7587 364.506 24.11 364.619 24.45C364.755 24.7673 364.925 25.0733 365.129 25.368C365.333 25.6627 365.594 25.9913 365.911 26.354C366.501 26.966 367.067 27.5327 367.611 28.054C367.861 28.258 368.065 28.36 368.223 28.36C368.382 28.36 368.575 28.258 368.801 28.054C369.073 27.8047 369.357 27.5327 369.651 27.238C369.946 26.9433 370.229 26.6487 370.501 26.354C370.819 25.9913 371.079 25.6627 371.283 25.368C371.487 25.0733 371.646 24.7673 371.759 24.45C371.895 24.11 371.986 23.7587 372.031 23.396C372.077 23.0333 372.099 22.6027 372.099 22.104V20.472C372.099 19.996 372.258 19.6447 372.575 19.418C372.915 19.1913 373.312 19.078 373.765 19.078C374.196 19.078 374.581 19.1913 374.921 19.418C375.261 19.6447 375.431 19.996 375.431 20.472V22.104C375.431 22.6253 375.465 23.0787 375.533 23.464C375.601 23.8493 375.703 24.212 375.839 24.552C375.998 24.8693 376.202 25.1867 376.451 25.504C376.723 25.7987 377.052 26.1273 377.437 26.49C377.891 26.9207 378.401 27.3513 378.967 27.782C379.534 28.2353 380.101 28.666 380.667 29.074C380.985 29.3233 381.132 29.6293 381.109 29.992C381.109 30.3773 380.985 30.7287 380.735 31.046C380.486 31.386 380.169 31.59 379.783 31.658C379.421 31.726 379.047 31.624 378.661 31.352C378.185 30.9893 377.732 30.6267 377.301 30.264C376.871 29.924 376.463 29.584 376.077 29.244C375.284 28.5867 374.729 28.054 374.411 27.646C374.094 27.238 373.879 26.864 373.765 26.524H373.731C373.686 26.7053 373.618 26.8867 373.527 27.068C373.437 27.2493 373.301 27.442 373.119 27.646C372.961 27.8727 372.745 28.122 372.473 28.394C372.224 28.666 371.918 28.9947 371.555 29.38C371.283 29.652 371.011 29.9127 370.739 30.162C370.49 30.4113 370.229 30.6493 369.957 30.876C369.3 31.4427 368.722 31.726 368.223 31.726C367.725 31.726 367.147 31.4427 366.489 30.876C365.945 30.4227 365.413 29.924 364.891 29.38C364.143 28.6093 363.611 28.0313 363.293 27.646C362.976 27.2833 362.772 26.9093 362.681 26.524H362.647C362.534 26.9093 362.319 27.2947 362.001 27.68C361.684 28.088 361.14 28.632 360.369 29.312C359.984 29.6293 359.576 29.958 359.145 30.298C358.715 30.6607 358.25 31.0233 357.751 31.386C357.366 31.6807 356.992 31.7827 356.629 31.692C356.267 31.624 355.949 31.4313 355.677 31.114C355.428 30.774 355.303 30.4113 355.303 30.026C355.303 29.6407 355.462 29.3233 355.779 29.074C356.323 28.666 356.879 28.2353 357.445 27.782C358.012 27.3513 358.522 26.9207 358.975 26.49C359.361 26.1273 359.678 25.7987 359.927 25.504C360.199 25.1867 360.403 24.8693 360.539 24.552C360.698 24.212 360.811 23.8493 360.879 23.464C360.947 23.0787 360.981 22.6253 360.981 22.104V20.472C360.981 19.996 361.151 19.6447 361.491 19.418C361.831 19.1913 362.217 19.078 362.647 19.078ZM392.301 2.316C394.907 2.316 396.868 3.17733 398.183 4.9C399.52 6.62267 400.189 9.13867 400.189 12.448C400.189 15.7573 399.52 18.2733 398.183 19.996C396.868 21.7187 394.907 22.58 392.301 22.58C389.694 22.58 387.733 21.7187 386.419 19.996C385.104 18.2733 384.447 15.7573 384.447 12.448C384.447 9.13867 385.104 6.62267 386.419 4.9C387.733 3.17733 389.694 2.316 392.301 2.316ZM392.301 5.308C390.669 5.308 389.501 5.92 388.799 7.144C388.096 8.34533 387.745 10.1133 387.745 12.448C387.745 14.7827 388.096 16.562 388.799 17.786C389.501 18.9873 390.669 19.588 392.301 19.588C393.955 19.588 395.134 18.9873 395.837 17.786C396.539 16.562 396.891 14.7827 396.891 12.448C396.891 10.1133 396.539 8.34533 395.837 7.144C395.134 5.92 393.955 5.308 392.301 5.308ZM407.601 0.547998C408.054 0.547998 408.451 0.661332 408.791 0.888C409.131 1.11467 409.301 1.47733 409.301 1.976V28.496C409.301 28.9947 409.131 29.3573 408.791 29.584C408.451 29.8107 408.054 29.924 407.601 29.924C407.17 29.924 406.785 29.8107 406.445 29.584C406.105 29.3573 405.935 28.9947 405.935 28.496V13.876H398.013V10.986H405.935V1.976C405.935 1.47733 406.105 1.11467 406.445 0.888C406.785 0.661332 407.17 0.547998 407.601 0.547998ZM428.686 1.738C430.318 1.738 431.78 1.91933 433.072 2.282C434.386 2.64467 435.486 3.17733 436.37 3.88C437.276 4.56 437.968 5.41 438.444 6.43C438.92 7.42733 439.158 8.56067 439.158 9.83C439.158 12.3913 438.228 14.386 436.37 15.814C434.534 17.2193 431.972 17.922 428.686 17.922C425.399 17.922 422.838 17.2193 421.002 15.814C419.166 14.386 418.248 12.3913 418.248 9.83C418.248 8.56067 418.486 7.42733 418.962 6.43C419.438 5.41 420.118 4.56 421.002 3.88C421.908 3.17733 423.008 2.64467 424.3 2.282C425.592 1.91933 427.054 1.738 428.686 1.738ZM428.686 4.628C427.462 4.628 426.408 4.764 425.524 5.036C424.64 5.28533 423.903 5.648 423.314 6.124C422.747 6.57733 422.328 7.12133 422.056 7.756C421.784 8.39067 421.648 9.082 421.648 9.83C421.648 10.578 421.784 11.2693 422.056 11.904C422.328 12.5387 422.747 13.094 423.314 13.57C423.903 14.0233 424.64 14.386 425.524 14.658C426.408 14.9073 427.462 15.032 428.686 15.032C429.91 15.032 430.964 14.9073 431.848 14.658C432.732 14.386 433.457 14.0233 434.024 13.57C434.613 13.094 435.044 12.5387 435.316 11.904C435.588 11.2693 435.724 10.578 435.724 9.83C435.724 9.082 435.588 8.39067 435.316 7.756C435.044 7.12133 434.613 6.57733 434.024 6.124C433.457 5.648 432.732 5.28533 431.848 5.036C430.964 4.764 429.91 4.628 428.686 4.628ZM423.45 18.602C423.903 18.602 424.3 18.7153 424.64 18.942C424.98 19.1687 425.15 19.52 425.15 19.996V24.11H432.222V19.996C432.222 19.52 432.392 19.1687 432.732 18.942C433.072 18.7153 433.468 18.602 433.922 18.602C434.375 18.602 434.772 18.7153 435.112 18.942C435.452 19.1687 435.622 19.52 435.622 19.996V24.11H441.776C442.184 24.11 442.478 24.246 442.66 24.518C442.864 24.79 442.966 25.1187 442.966 25.504C442.966 25.8893 442.864 26.2293 442.66 26.524C442.478 26.8187 442.184 26.966 441.776 26.966L415.596 26.966C415.188 26.966 414.882 26.8187 414.678 26.524C414.496 26.2293 414.406 25.8893 414.406 25.504C414.406 25.1187 414.496 24.79 414.678 24.518C414.882 24.246 415.188 24.11 415.596 24.11H421.75V19.996C421.75 19.52 421.92 19.1687 422.26 18.942C422.6 18.7153 422.996 18.602 423.45 18.602ZM448.377 23.634C449.034 23.634 449.578 23.8493 450.009 24.28C450.462 24.7107 450.689 25.2547 450.689 25.912C450.689 26.5693 450.462 27.1133 450.009 27.544C449.578 27.9973 449.034 28.224 448.377 28.224C447.72 28.224 447.176 27.9973 446.745 27.544C446.314 27.1133 446.099 26.5693 446.099 25.912C446.099 25.2547 446.314 24.7107 446.745 24.28C447.176 23.8493 447.72 23.634 448.377 23.634Z" fill="#222222"/>
</svg>
